<svg id="svg" version="1.1" xmlns="http://www.w3.org/2000/svg" xmlns:xlink="http://www.w3.org/1999/xlink" width="400" height="300" viewBox="0, 0, 400,300"><g id="svgg"><path id="path0" d="M158.140 6.902 C 158.140 7.068,157.346 7.202,156.361 7.202 C 155.179 7.202,154.430 7.353,154.131 7.652 C 153.879 7.905,153.145 8.102,152.460 8.102 C 151.788 8.102,151.238 8.237,151.238 8.402 C 151.238 8.567,150.765 8.702,150.188 8.702 C 149.454 8.702,149.137 8.838,149.137 9.152 C 149.137 9.400,148.965 9.602,148.753 9.602 C 148.542 9.602,148.175 9.872,147.937 10.203 C 147.699 10.533,147.197 10.803,146.820 10.803 C 146.444 10.803,146.137 10.938,146.137 11.103 C 146.137 11.268,145.731 11.403,145.236 11.403 C 144.636 11.403,144.336 11.553,144.336 11.853 C 144.336 12.101,144.196 12.303,144.024 12.303 C 143.588 12.303,141.335 14.647,141.335 15.100 C 141.335 15.304,141.065 15.666,140.735 15.904 C 140.405 16.142,140.135 16.509,140.135 16.720 C 140.135 16.932,139.932 17.104,139.685 17.104 C 139.437 17.104,139.235 17.365,139.235 17.684 C 139.235 18.056,138.994 18.297,138.560 18.359 C 138.126 18.420,137.850 18.696,137.789 19.130 C 137.736 19.501,137.567 19.805,137.413 19.805 C 137.260 19.805,137.134 20.278,137.134 20.855 C 137.134 21.686,137.015 21.905,136.566 21.905 C 135.922 21.905,135.634 22.464,135.634 23.710 C 135.634 24.302,135.449 24.624,135.034 24.756 C 134.613 24.890,134.434 25.210,134.434 25.827 C 134.434 26.409,134.281 26.707,133.983 26.707 C 133.703 26.707,133.533 26.990,133.533 27.457 C 133.533 27.869,133.398 28.207,133.233 28.207 C 133.068 28.207,132.933 28.815,132.933 29.557 C 132.933 30.300,132.798 30.908,132.633 30.908 C 132.468 30.908,132.333 31.245,132.333 31.658 C 132.333 32.071,132.211 32.408,132.061 32.408 C 131.912 32.408,131.696 33.083,131.583 33.908 C 131.469 34.734,131.254 35.409,131.105 35.409 C 130.955 35.409,130.833 36.287,130.833 37.359 C 130.833 38.460,130.702 39.310,130.533 39.310 C 130.356 39.310,130.233 40.360,130.233 41.860 L 130.233 44.411 127.832 44.411 C 126.432 44.411,125.431 44.536,125.431 44.711 C 125.431 44.876,125.229 45.011,124.981 45.011 C 124.734 45.011,124.531 44.876,124.531 44.711 C 124.531 44.251,119.812 44.323,119.644 44.786 C 119.535 45.086,119.381 45.086,118.873 44.786 C 118.524 44.580,117.459 44.409,116.508 44.407 C 114.206 44.402,113.428 44.167,113.428 43.476 C 113.428 43.165,113.293 42.911,113.128 42.911 C 112.963 42.911,112.828 42.573,112.828 42.161 C 112.828 41.748,112.693 41.410,112.528 41.410 C 112.363 41.410,112.228 41.140,112.228 40.810 C 112.228 40.480,112.363 40.210,112.528 40.210 C 112.972 40.210,112.892 39.631,112.378 39.117 C 112.131 38.869,111.928 38.339,111.928 37.938 C 111.928 37.537,111.793 37.209,111.628 37.209 C 111.463 37.209,111.328 36.939,111.328 36.609 C 111.328 36.279,111.193 36.009,111.028 36.009 C 110.863 36.009,110.728 35.806,110.728 35.559 C 110.728 35.279,110.444 35.109,109.977 35.109 C 109.348 35.109,109.227 34.967,109.227 34.229 C 109.227 33.612,109.048 33.292,108.627 33.158 C 108.297 33.054,108.027 32.707,108.027 32.388 C 108.027 32.069,107.882 31.808,107.705 31.808 C 107.529 31.808,107.181 31.605,106.934 31.358 C 106.686 31.110,106.021 30.908,105.455 30.908 C 104.720 30.908,104.426 30.773,104.426 30.436 C 104.426 29.207,103.771 29.066,97.222 28.887 C 93.757 28.793,90.923 28.601,90.923 28.461 C 90.923 28.321,85.454 28.207,78.770 28.207 C 70.868 28.207,66.617 28.312,66.617 28.507 C 66.617 28.685,65.516 28.807,63.916 28.807 C 62.316 28.807,61.215 28.685,61.215 28.507 C 61.215 28.342,60.878 28.207,60.465 28.207 C 60.053 28.207,59.715 28.342,59.715 28.507 C 59.715 28.672,59.252 28.807,58.686 28.807 C 58.120 28.807,57.455 29.010,57.207 29.257 C 56.960 29.505,56.275 29.707,55.685 29.707 C 55.096 29.707,54.614 29.842,54.614 30.008 C 54.614 30.173,54.344 30.308,54.014 30.308 C 53.683 30.308,53.413 30.434,53.413 30.587 C 53.413 30.741,53.123 30.960,52.767 31.072 C 52.025 31.308,49.812 33.470,49.812 33.960 C 49.812 34.141,49.576 34.507,49.286 34.774 C 48.537 35.465,47.712 37.375,47.712 38.420 C 47.712 38.909,47.577 39.310,47.412 39.310 C 47.247 39.310,47.112 39.497,47.112 39.725 C 47.112 39.953,46.842 40.211,46.512 40.297 C 45.988 40.434,45.911 40.706,45.911 42.433 C 45.911 44.343,45.886 44.411,45.161 44.411 C 44.749 44.411,44.411 44.546,44.411 44.711 C 44.411 44.876,43.938 45.011,43.361 45.011 C 42.783 45.011,42.311 44.876,42.311 44.711 C 42.311 44.546,42.108 44.411,41.860 44.411 C 41.613 44.411,41.410 44.546,41.410 44.711 C 41.410 44.876,41.140 45.011,40.810 45.011 C 40.480 45.011,40.210 45.146,40.210 45.311 C 40.210 45.476,40.008 45.611,39.760 45.611 C 39.512 45.611,39.310 45.476,39.310 45.311 C 39.310 45.146,39.040 45.011,38.710 45.011 C 38.319 45.011,38.110 45.211,38.110 45.583 C 38.110 46.042,37.813 46.196,36.609 46.362 C 35.784 46.475,35.109 46.690,35.109 46.840 C 35.109 46.989,34.713 47.112,34.229 47.112 C 33.629 47.112,33.291 47.293,33.168 47.680 C 33.056 48.033,32.592 48.323,31.948 48.444 C 31.376 48.552,30.908 48.768,30.908 48.926 C 30.908 49.083,30.503 49.212,30.008 49.212 C 29.317 49.212,29.107 49.348,29.107 49.794 C 29.107 50.250,28.864 50.397,27.982 50.470 C 27.078 50.544,26.838 50.695,26.761 51.238 C 26.708 51.609,26.462 51.913,26.214 51.913 C 25.571 51.913,24.906 52.664,24.906 53.392 C 24.906 53.821,24.713 54.014,24.285 54.014 C 23.421 54.014,22.934 54.588,22.688 55.897 C 22.531 56.734,22.331 57.014,21.892 57.014 C 21.441 57.014,21.305 57.221,21.305 57.909 C 21.305 58.613,21.145 58.843,20.555 58.992 C 19.939 59.146,19.805 59.362,19.805 60.198 C 19.805 60.995,19.682 61.215,19.238 61.215 C 18.828 61.215,18.617 61.506,18.474 62.266 C 18.366 62.843,18.148 63.316,17.991 63.316 C 17.833 63.316,17.704 63.721,17.704 64.216 C 17.704 64.711,17.569 65.116,17.404 65.116 C 17.238 65.116,17.104 65.908,17.104 66.892 C 17.104 67.961,16.967 68.713,16.760 68.782 C 16.317 68.929,16.356 75.419,16.800 75.567 C 16.967 75.623,17.104 75.937,17.104 76.265 C 17.104 76.903,17.480 77.343,18.537 77.944 C 19.326 78.393,20.705 78.441,20.705 78.020 C 20.705 77.854,20.975 77.719,21.305 77.719 C 21.635 77.719,21.905 77.584,21.905 77.419 C 21.905 77.254,22.185 77.119,22.527 77.119 C 23.323 77.119,24.006 76.436,24.006 75.640 C 24.006 75.264,24.200 75.019,24.499 75.019 C 24.935 75.019,24.969 74.706,24.788 72.313 C 24.616 70.029,24.656 69.580,25.045 69.430 C 25.381 69.301,25.506 68.814,25.506 67.635 C 25.506 66.745,25.641 66.017,25.806 66.017 C 25.971 66.017,26.107 65.814,26.107 65.566 C 26.107 65.319,26.233 65.116,26.388 65.116 C 26.543 65.116,26.761 64.509,26.872 63.766 C 27.030 62.714,27.200 62.416,27.641 62.416 C 28.007 62.416,28.207 62.204,28.207 61.815 C 28.207 61.485,28.342 61.215,28.507 61.215 C 28.672 61.215,28.807 61.033,28.807 60.811 C 28.807 60.215,29.852 59.115,30.418 59.115 C 30.687 59.115,30.908 58.912,30.908 58.665 C 30.908 58.417,31.110 58.215,31.358 58.215 C 31.608 58.215,31.808 57.948,31.808 57.614 C 31.808 57.129,32.008 57.014,32.858 57.014 C 33.592 57.014,33.908 56.879,33.908 56.564 C 33.908 56.314,34.175 56.114,34.509 56.114 C 34.895 56.114,35.109 55.914,35.109 55.553 C 35.109 54.978,36.280 54.624,38.213 54.617 C 38.812 54.615,39.113 54.435,39.223 54.014 C 39.341 53.563,39.632 53.413,40.395 53.413 C 40.953 53.413,41.410 53.278,41.410 53.113 C 41.410 52.948,41.613 52.813,41.860 52.813 C 42.108 52.813,42.311 52.948,42.311 53.113 C 42.311 53.278,42.783 53.413,43.361 53.413 C 43.938 53.413,44.411 53.278,44.411 53.113 C 44.411 52.948,44.681 52.813,45.011 52.813 C 45.341 52.813,45.611 52.948,45.611 53.113 C 45.611 53.285,46.512 53.413,47.712 53.413 C 48.912 53.413,49.812 53.285,49.812 53.113 C 49.812 52.948,50.011 52.813,50.253 52.813 C 50.824 52.813,52.813 50.824,52.813 50.253 C 52.813 50.011,53.083 49.812,53.413 49.812 C 53.975 49.812,54.014 49.612,54.014 46.662 C 54.014 44.061,54.092 43.511,54.464 43.511 C 54.761 43.511,54.914 43.213,54.914 42.631 C 54.914 42.014,55.093 41.694,55.514 41.560 C 55.902 41.437,56.114 41.106,56.114 40.626 C 56.114 40.216,56.452 39.568,56.864 39.186 C 57.277 38.804,57.614 38.270,57.614 38.000 C 57.614 37.730,57.648 37.497,57.689 37.483 C 58.723 37.114,101.425 37.275,101.425 37.647 C 101.425 37.902,101.628 38.110,101.875 38.110 C 102.126 38.110,102.326 38.376,102.326 38.710 C 102.326 39.040,102.461 39.310,102.626 39.310 C 102.791 39.310,102.926 39.512,102.926 39.760 C 102.926 40.008,103.061 40.210,103.226 40.210 C 103.391 40.210,103.526 40.484,103.526 40.820 C 103.526 41.155,103.728 41.507,103.976 41.602 C 104.233 41.700,104.426 42.148,104.426 42.643 C 104.426 43.311,104.564 43.511,105.026 43.511 C 105.360 43.511,105.626 43.711,105.626 43.961 C 105.626 44.209,105.491 44.411,105.326 44.411 C 104.902 44.411,104.951 46.137,105.379 46.279 C 105.608 46.355,105.721 47.112,105.701 48.423 C 105.679 49.921,105.782 50.491,106.099 50.613 C 106.334 50.703,106.527 51.033,106.527 51.345 C 106.527 51.701,106.737 51.913,107.092 51.913 C 107.404 51.913,108.045 52.115,108.518 52.361 C 109.064 52.646,110.227 52.810,111.707 52.811 C 113.028 52.812,114.312 52.976,114.672 53.188 C 115.180 53.488,115.334 53.488,115.443 53.188 C 115.604 52.745,117.029 52.677,117.029 53.113 C 117.029 53.278,117.502 53.413,118.080 53.413 C 118.657 53.413,119.130 53.278,119.130 53.113 C 119.130 52.942,120.030 52.813,121.230 52.813 C 122.431 52.813,123.331 52.942,123.331 53.113 C 123.331 53.645,133.487 53.503,134.026 52.963 C 134.274 52.716,134.878 52.513,135.369 52.513 C 137.056 52.513,137.610 51.533,137.832 48.151 C 137.940 46.508,138.165 45.118,138.331 45.062 C 138.725 44.931,138.728 42.311,138.335 42.311 C 137.794 42.311,138.020 40.953,138.635 40.510 C 139.249 40.067,139.475 38.710,138.935 38.710 C 138.386 38.710,138.625 37.553,139.212 37.366 C 139.672 37.221,139.832 36.787,139.997 35.246 C 140.112 34.180,140.324 33.308,140.470 33.308 C 140.616 33.308,140.735 32.768,140.735 32.108 C 140.735 31.108,140.835 30.908,141.335 30.908 C 141.847 30.908,141.935 30.708,141.935 29.557 C 141.935 28.557,142.052 28.207,142.386 28.207 C 142.636 28.207,142.836 27.940,142.836 27.607 C 142.836 27.277,142.971 27.007,143.136 27.007 C 143.301 27.007,143.436 26.534,143.436 25.956 C 143.436 25.276,143.578 24.906,143.840 24.906 C 144.420 24.906,145.536 23.867,145.536 23.328 C 145.536 23.076,145.739 22.792,145.986 22.697 C 146.234 22.602,146.437 22.308,146.437 22.043 C 146.437 21.480,147.139 20.705,147.651 20.705 C 147.847 20.705,148.531 20.165,149.172 19.505 C 149.813 18.845,150.482 18.305,150.659 18.305 C 151.137 18.305,151.838 17.515,151.838 16.976 C 151.838 16.617,152.161 16.504,153.188 16.504 C 154.189 16.504,154.539 16.387,154.539 16.054 C 154.539 15.514,155.178 15.463,155.679 15.964 C 155.959 16.244,156.119 16.244,156.399 15.964 C 156.869 15.494,257.764 15.434,257.764 15.904 C 257.764 16.069,258.237 16.204,258.815 16.204 C 259.548 16.204,259.865 16.340,259.865 16.654 C 259.865 16.902,260.068 17.104,260.315 17.104 C 260.563 17.104,260.765 17.239,260.765 17.404 C 260.765 17.569,261.238 17.704,261.815 17.704 C 262.736 17.704,262.866 17.797,262.866 18.455 C 262.866 19.005,263.026 19.205,263.466 19.205 C 263.822 19.205,264.066 19.405,264.066 19.697 C 264.066 20.226,265.662 21.905,266.164 21.905 C 266.330 21.905,266.467 22.050,266.467 22.227 C 266.467 22.705,267.257 23.406,267.796 23.406 C 268.133 23.406,268.267 23.699,268.267 24.435 C 268.267 25.001,268.470 25.666,268.717 25.914 C 268.965 26.161,269.167 26.508,269.167 26.685 C 269.167 26.862,269.302 27.007,269.467 27.007 C 269.632 27.007,269.767 27.277,269.767 27.607 C 269.767 27.940,269.967 28.207,270.218 28.207 C 270.544 28.207,270.668 28.544,270.668 29.435 C 270.668 30.411,270.791 30.696,271.268 30.821 C 271.722 30.940,271.868 31.230,271.868 32.014 C 271.868 32.585,272.071 33.254,272.318 33.501 C 272.566 33.749,272.768 34.279,272.768 34.680 C 272.768 35.081,272.903 35.409,273.068 35.409 C 273.233 35.409,273.368 35.814,273.368 36.309 C 273.368 36.804,273.503 37.209,273.668 37.209 C 273.833 37.209,273.968 37.412,273.968 37.659 C 273.968 37.907,273.833 38.110,273.668 38.110 C 273.503 38.110,273.368 38.582,273.368 39.160 C 273.368 39.737,273.503 40.210,273.668 40.210 C 273.833 40.210,273.968 40.480,273.968 40.810 C 273.968 41.140,274.104 41.410,274.269 41.410 C 274.434 41.410,274.569 41.613,274.569 41.860 C 274.569 42.108,274.434 42.311,274.269 42.311 C 274.104 42.311,273.968 42.648,273.968 43.061 C 273.968 43.473,274.083 43.811,274.224 43.811 C 274.364 43.811,274.557 45.297,274.653 47.112 C 274.825 50.377,275.142 51.313,276.075 51.313 C 276.266 51.313,276.665 51.612,276.962 51.978 C 277.461 52.595,277.804 52.653,281.586 52.763 C 283.833 52.829,285.671 53.002,285.671 53.148 C 285.671 53.294,287.427 53.413,289.572 53.413 C 291.973 53.413,293.473 53.298,293.473 53.113 C 293.473 52.919,297.274 52.813,304.276 52.813 C 311.278 52.813,315.079 52.919,315.079 53.113 C 315.079 53.294,316.329 53.413,318.230 53.413 C 320.130 53.413,321.380 53.294,321.380 53.113 C 321.380 52.948,322.056 52.813,322.881 52.813 C 323.706 52.813,324.381 52.948,324.381 53.113 C 324.381 53.278,324.989 53.413,325.731 53.413 C 326.474 53.413,327.082 53.278,327.082 53.113 C 327.082 52.948,327.352 52.813,327.682 52.813 C 328.012 52.813,328.282 52.948,328.282 53.113 C 328.282 53.278,328.822 53.413,329.482 53.413 C 330.143 53.413,330.683 53.278,330.683 53.113 C 330.683 52.942,331.583 52.813,332.783 52.813 C 333.983 52.813,334.884 52.942,334.884 53.113 C 334.884 53.310,341.485 53.413,354.089 53.413 C 366.692 53.413,373.293 53.517,373.293 53.713 C 373.293 53.878,373.563 54.014,373.893 54.014 C 374.227 54.014,374.494 54.214,374.494 54.464 C 374.494 54.798,374.846 54.914,375.865 54.914 C 377.281 54.914,378.095 55.398,378.095 56.243 C 378.095 56.514,378.349 56.714,378.695 56.714 C 379.028 56.714,379.295 56.914,379.295 57.164 C 379.295 57.412,379.497 57.614,379.745 57.614 C 379.992 57.614,380.195 57.749,380.195 57.914 C 380.195 58.080,380.506 58.215,380.885 58.215 C 381.728 58.215,382.296 58.738,382.296 59.515 C 382.296 60.153,383.355 61.215,383.992 61.215 C 384.241 61.215,384.396 61.561,384.396 62.116 C 384.396 62.611,384.531 63.016,384.696 63.016 C 384.861 63.016,384.996 63.218,384.996 63.466 C 384.996 63.713,385.131 63.916,385.296 63.916 C 385.461 63.916,385.596 64.186,385.596 64.516 C 385.596 64.850,385.796 65.116,386.047 65.116 C 386.294 65.116,386.497 65.319,386.497 65.566 C 386.497 65.814,386.632 66.017,386.797 66.017 C 386.962 66.017,387.097 66.489,387.097 67.067 C 387.097 67.644,387.232 68.117,387.397 68.117 C 387.562 68.117,387.697 68.590,387.697 69.167 C 387.697 69.745,387.832 70.218,387.997 70.218 C 388.162 70.218,388.297 70.960,388.297 71.868 C 388.297 72.776,388.162 73.518,387.997 73.518 C 387.832 73.518,387.697 73.856,387.697 74.269 C 387.697 74.735,387.867 75.019,388.147 75.019 C 388.427 75.019,388.597 75.302,388.597 75.769 C 388.597 76.319,388.757 76.519,389.197 76.519 C 389.527 76.519,389.797 76.654,389.797 76.819 C 389.797 76.984,390.000 77.119,390.248 77.119 C 390.495 77.119,390.698 77.254,390.698 77.419 C 390.698 77.904,394.571 77.790,395.070 77.291 C 395.306 77.055,395.499 76.747,395.499 76.607 C 395.499 76.466,395.769 76.157,396.099 75.919 C 396.713 75.476,396.940 74.119,396.399 74.119 C 396.224 74.119,396.099 73.118,396.099 71.718 C 396.099 70.318,395.974 69.317,395.799 69.317 C 395.634 69.317,395.499 68.845,395.499 68.267 C 395.499 67.689,395.364 67.217,395.199 67.217 C 395.034 67.217,394.899 66.474,394.899 65.566 C 394.899 64.299,394.794 63.916,394.449 63.916 C 394.169 63.916,393.998 63.633,393.998 63.166 C 393.998 62.753,393.863 62.416,393.698 62.416 C 393.533 62.416,393.398 62.001,393.398 61.494 C 393.398 60.575,392.829 59.715,392.219 59.715 C 392.043 59.715,391.898 59.377,391.898 58.965 C 391.898 58.552,391.763 58.215,391.598 58.215 C 391.433 58.215,391.298 57.959,391.298 57.647 C 391.298 57.292,391.017 57.009,390.548 56.891 C 389.957 56.743,389.797 56.512,389.797 55.808 C 389.797 55.316,389.662 54.914,389.497 54.914 C 389.332 54.914,389.197 54.763,389.197 54.578 C 389.197 54.180,386.986 51.913,386.598 51.913 C 386.450 51.913,386.134 51.643,385.896 51.313 C 385.659 50.983,385.162 50.713,384.794 50.713 C 384.425 50.713,383.786 50.375,383.373 49.962 C 382.961 49.550,382.347 49.212,382.009 49.212 C 381.672 49.212,381.395 49.068,381.395 48.891 C 381.395 48.282,380.536 47.712,379.616 47.712 C 379.109 47.712,378.695 47.577,378.695 47.412 C 378.695 47.247,378.425 47.112,378.095 47.112 C 377.764 47.112,377.494 46.983,377.494 46.827 C 377.494 46.670,376.684 46.450,375.694 46.338 C 374.208 46.170,373.893 46.036,373.893 45.573 C 373.893 45.264,373.691 45.011,373.443 45.011 C 373.196 45.011,372.993 45.146,372.993 45.311 C 372.993 45.842,371.940 45.631,371.493 45.011 C 371.040 44.383,369.092 44.139,369.092 44.711 C 369.092 44.876,368.890 45.011,368.642 45.011 C 368.395 45.011,368.192 44.876,368.192 44.711 C 368.192 44.514,361.240 44.411,347.937 44.411 C 334.634 44.411,327.682 44.514,327.682 44.711 C 327.682 44.876,327.412 45.011,327.082 45.011 C 326.752 45.011,326.482 44.876,326.482 44.711 C 326.482 44.514,320.230 44.411,308.327 44.411 C 296.424 44.411,290.173 44.514,290.173 44.711 C 290.173 44.876,289.835 45.011,289.422 45.011 C 289.010 45.011,288.672 44.876,288.672 44.711 C 288.672 44.538,287.734 44.411,286.459 44.411 C 282.715 44.411,282.371 44.269,282.371 42.723 C 282.371 42.001,282.506 41.410,282.671 41.410 C 282.836 41.410,282.971 41.140,282.971 40.810 C 282.971 40.480,282.836 40.210,282.671 40.210 C 282.506 40.210,282.371 40.008,282.371 39.760 C 282.371 39.512,282.236 39.310,282.071 39.310 C 281.901 39.310,281.770 38.452,281.770 37.338 C 281.770 35.985,281.629 35.225,281.320 34.916 C 281.032 34.628,280.870 33.887,280.870 32.857 C 280.870 31.512,280.772 31.217,280.270 31.058 C 279.789 30.905,279.670 30.604,279.670 29.537 C 279.670 28.555,279.552 28.207,279.220 28.207 C 278.940 28.207,278.770 27.924,278.770 27.457 C 278.770 27.044,278.635 26.707,278.470 26.707 C 278.305 26.707,278.170 26.234,278.170 25.656 C 278.170 25.079,278.035 24.606,277.869 24.606 C 277.704 24.606,277.569 24.336,277.569 24.006 C 277.569 23.676,277.434 23.406,277.269 23.406 C 277.104 23.406,276.969 23.203,276.969 22.956 C 276.969 22.708,276.767 22.506,276.519 22.506 C 276.219 22.506,276.069 22.206,276.069 21.605 C 276.069 21.110,275.934 20.705,275.769 20.705 C 275.604 20.705,275.469 20.503,275.469 20.255 C 275.469 20.008,275.266 19.805,275.019 19.805 C 274.769 19.805,274.569 19.538,274.569 19.205 C 274.569 18.805,274.369 18.605,273.968 18.605 C 273.504 18.605,273.368 18.405,273.368 17.717 C 273.368 16.655,271.337 14.404,270.379 14.404 C 269.960 14.404,269.767 14.208,269.767 13.782 C 269.767 12.989,269.164 12.386,268.241 12.255 C 267.843 12.199,267.384 11.849,267.221 11.478 C 267.007 10.991,266.670 10.803,266.012 10.803 C 265.443 10.803,264.936 10.576,264.666 10.203 C 264.428 9.872,264.061 9.602,263.850 9.602 C 263.639 9.602,263.466 9.400,263.466 9.152 C 263.466 8.902,263.199 8.702,262.866 8.702 C 262.536 8.702,262.266 8.567,262.266 8.402 C 262.266 8.237,262.074 8.102,261.840 8.102 C 261.607 8.102,261.354 7.933,261.280 7.727 C 261.171 7.427,261.017 7.427,260.508 7.727 C 259.676 8.218,259.021 8.201,258.496 7.676 C 258.163 7.343,257.276 7.270,254.466 7.344 C 251.541 7.420,250.863 7.359,250.863 7.020 C 250.863 6.664,244.237 6.602,206.602 6.602 C 177.294 6.602,162.341 6.703,162.341 6.902 C 162.341 7.067,162.003 7.202,161.590 7.202 C 161.178 7.202,160.840 7.067,160.840 6.902 C 160.840 6.737,160.233 6.602,159.490 6.602 C 158.747 6.602,158.140 6.737,158.140 6.902 M201.950 66.317 C 201.950 66.482,201.478 66.617,200.900 66.617 C 200.323 66.617,199.850 66.752,199.850 66.917 C 199.850 67.082,199.580 67.217,199.250 67.217 C 198.920 67.217,198.650 67.082,198.650 66.917 C 198.650 66.745,197.749 66.617,196.549 66.617 C 194.882 66.617,194.449 66.710,194.449 67.067 C 194.449 67.417,194.049 67.517,192.648 67.517 C 191.648 67.517,190.848 67.650,190.848 67.817 C 190.848 67.982,190.518 68.117,190.115 68.117 C 189.712 68.117,189.299 67.982,189.197 67.817 C 188.871 67.289,188.147 67.496,188.147 68.117 C 188.147 68.809,187.801 68.872,186.903 68.342 C 186.395 68.042,186.241 68.042,186.132 68.342 C 186.052 68.565,185.459 68.717,184.671 68.717 C 183.942 68.717,183.346 68.852,183.346 69.017 C 183.346 69.182,183.008 69.317,182.596 69.317 C 182.129 69.317,181.845 69.487,181.845 69.767 C 181.845 70.018,181.579 70.218,181.245 70.218 C 180.915 70.218,180.645 70.083,180.645 69.917 C 180.645 69.341,179.391 69.607,179.232 70.218 C 179.130 70.606,178.822 70.818,178.360 70.818 C 177.966 70.818,177.644 70.953,177.644 71.118 C 177.644 71.283,177.361 71.418,177.015 71.418 C 176.668 71.418,175.925 71.636,175.362 71.903 C 174.569 72.279,174.244 72.309,173.915 72.036 C 173.482 71.677,172.243 72.162,172.243 72.690 C 172.243 72.816,171.905 72.918,171.493 72.918 C 171.016 72.918,170.743 73.087,170.743 73.382 C 170.743 73.749,170.525 73.805,169.692 73.649 C 169.026 73.524,168.642 73.568,168.642 73.771 C 168.642 73.947,168.170 74.180,167.592 74.288 C 166.832 74.431,166.542 74.642,166.542 75.052 C 166.542 75.500,166.321 75.619,165.491 75.619 C 164.914 75.619,164.441 75.748,164.441 75.905 C 164.441 76.063,163.968 76.281,163.391 76.389 C 162.813 76.497,162.341 76.706,162.341 76.853 C 162.341 76.999,162.033 77.119,161.657 77.119 C 161.280 77.119,160.778 77.389,160.540 77.719 C 160.302 78.050,159.935 78.320,159.724 78.320 C 159.513 78.320,159.340 78.522,159.340 78.770 C 159.340 79.070,159.040 79.220,158.440 79.220 C 157.944 79.220,157.539 79.355,157.539 79.520 C 157.539 79.685,157.395 79.820,157.218 79.820 C 156.802 79.820,156.039 80.583,156.039 80.999 C 156.039 81.176,155.624 81.320,155.117 81.320 C 154.198 81.320,153.338 81.890,153.338 82.499 C 153.338 82.676,153.166 82.821,152.954 82.821 C 152.743 82.821,152.376 83.091,152.138 83.421 C 151.900 83.751,151.456 84.021,151.150 84.021 C 150.541 84.021,149.737 84.692,149.737 85.200 C 149.737 85.377,149.400 85.521,148.987 85.521 C 148.437 85.521,148.237 85.681,148.237 86.122 C 148.237 86.522,148.037 86.722,147.637 86.722 C 147.303 86.722,147.037 86.922,147.037 87.172 C 147.037 87.452,146.753 87.622,146.287 87.622 C 145.874 87.622,145.536 87.757,145.536 87.922 C 145.536 88.087,145.266 88.222,144.936 88.222 C 144.603 88.222,144.336 88.422,144.336 88.672 C 144.336 88.920,144.188 89.122,144.006 89.122 C 143.825 89.122,143.316 89.508,142.875 89.980 C 142.434 90.452,141.772 90.934,141.404 91.051 C 141.016 91.174,140.735 91.507,140.735 91.843 C 140.735 92.162,140.594 92.423,140.422 92.423 C 139.711 92.423,137.734 94.434,137.734 95.159 C 137.734 95.943,137.047 96.624,136.255 96.624 C 135.829 96.624,135.634 96.817,135.634 97.238 C 135.634 98.030,134.339 99.325,133.547 99.325 C 133.209 99.325,132.933 99.474,132.933 99.657 C 132.933 99.840,132.191 100.721,131.283 101.614 C 130.015 102.862,129.632 103.446,129.632 104.132 C 129.632 104.886,129.515 105.026,128.882 105.026 C 128.412 105.026,128.132 105.196,128.132 105.482 C 128.132 105.732,127.659 106.396,127.082 106.957 C 126.329 107.688,126.032 108.239,126.032 108.902 C 126.032 109.411,125.896 109.827,125.731 109.827 C 125.566 109.827,125.431 110.030,125.431 110.278 C 125.431 110.558,125.148 110.728,124.681 110.728 C 124.131 110.728,123.931 110.888,123.931 111.328 C 123.931 111.658,123.799 111.928,123.637 111.928 C 123.475 111.928,123.258 112.266,123.154 112.678 C 123.050 113.091,122.845 113.428,122.698 113.428 C 122.551 113.428,122.431 113.698,122.431 114.029 C 122.431 114.359,122.296 114.629,122.131 114.629 C 121.965 114.629,121.830 114.831,121.830 115.079 C 121.830 115.326,121.695 115.529,121.530 115.529 C 121.365 115.529,121.230 116.002,121.230 116.579 C 121.230 117.157,121.086 117.629,120.909 117.629 C 120.493 117.629,119.730 118.393,119.730 118.808 C 119.730 118.985,119.595 119.130,119.430 119.130 C 119.265 119.130,119.130 119.737,119.130 120.480 C 119.130 121.480,119.013 121.830,118.680 121.830 C 118.400 121.830,118.230 122.114,118.230 122.581 C 118.230 123.111,118.067 123.331,117.673 123.331 C 117.204 123.331,117.086 123.651,116.927 125.355 C 116.823 126.468,116.601 127.425,116.434 127.480 C 116.266 127.536,116.129 127.841,116.129 128.157 C 116.129 128.532,115.920 128.732,115.529 128.732 C 115.019 128.732,114.929 128.932,114.929 130.065 C 114.929 130.798,114.805 131.474,114.655 131.567 C 114.504 131.660,114.290 132.276,114.178 132.935 C 114.067 133.594,113.853 134.134,113.702 134.134 C 113.552 134.134,113.428 134.606,113.428 135.184 C 113.428 135.761,113.293 136.234,113.128 136.234 C 112.963 136.234,112.828 136.707,112.828 137.284 C 112.828 137.939,112.683 138.335,112.443 138.335 C 112.178 138.335,112.051 138.867,112.034 140.046 C 112.020 141.036,111.866 141.806,111.669 141.872 C 111.481 141.934,111.328 142.447,111.328 143.011 C 111.328 143.575,111.193 144.036,111.028 144.036 C 110.863 144.036,110.728 144.629,110.728 145.354 C 110.728 146.297,110.588 146.726,110.238 146.861 C 109.844 147.012,109.784 147.313,109.932 148.393 C 110.078 149.463,110.025 149.737,109.672 149.737 C 109.364 149.737,109.227 150.060,109.227 150.788 C 109.227 151.365,109.362 151.838,109.527 151.838 C 109.692 151.838,109.827 152.176,109.827 152.588 C 109.827 153.001,109.692 153.338,109.527 153.338 C 109.362 153.338,109.227 153.608,109.227 153.938 C 109.227 154.269,109.092 154.539,108.927 154.539 C 108.490 154.539,108.559 156.565,109.002 156.725 C 109.302 156.834,109.302 156.988,109.002 157.496 C 108.553 158.256,108.505 159.640,108.927 159.640 C 109.097 159.640,109.227 160.490,109.227 161.590 C 109.227 162.691,109.097 163.541,108.927 163.541 C 108.739 163.541,108.627 165.491,108.627 168.792 C 108.627 172.093,108.739 174.044,108.927 174.044 C 109.092 174.044,109.227 174.235,109.227 174.469 C 109.227 174.702,109.360 174.939,109.523 174.994 C 109.685 175.049,109.846 176.424,109.879 178.051 C 109.923 180.167,110.052 181.050,110.334 181.159 C 110.576 181.251,110.728 181.817,110.728 182.628 C 110.728 183.353,110.863 183.946,111.028 183.946 C 111.193 183.946,111.328 184.419,111.328 184.996 C 111.328 185.574,111.463 186.047,111.628 186.047 C 111.793 186.047,111.928 186.317,111.928 186.647 C 111.928 186.977,111.793 187.247,111.628 187.247 C 111.463 187.247,111.328 187.449,111.328 187.697 C 111.328 187.944,111.463 188.147,111.628 188.147 C 111.793 188.147,111.928 188.475,111.928 188.876 C 111.928 189.277,112.131 189.807,112.378 190.055 C 112.626 190.302,112.828 190.920,112.828 191.426 C 112.828 191.933,112.963 192.348,113.128 192.348 C 113.293 192.348,113.428 193.091,113.428 193.998 C 113.428 195.265,113.533 195.649,113.878 195.649 C 114.176 195.649,114.329 195.946,114.329 196.525 C 114.329 197.703,114.606 198.350,115.111 198.350 C 115.399 198.350,115.529 198.724,115.529 199.550 C 115.529 200.550,115.629 200.750,116.129 200.750 C 116.612 200.750,116.729 200.950,116.729 201.779 C 116.729 202.345,116.932 203.010,117.179 203.258 C 117.427 203.506,117.629 203.920,117.629 204.180 C 117.629 204.439,117.764 204.651,117.929 204.651 C 118.095 204.651,118.230 204.842,118.230 205.076 C 118.230 205.310,118.367 205.547,118.535 205.603 C 118.703 205.659,118.925 206.413,119.027 207.279 C 119.177 208.546,119.322 208.852,119.772 208.852 C 120.079 208.852,120.330 209.055,120.330 209.302 C 120.330 209.550,120.465 209.752,120.630 209.752 C 120.795 209.752,120.930 210.225,120.930 210.803 C 120.930 211.380,121.075 211.853,121.252 211.853 C 121.738 211.853,122.431 212.647,122.431 213.203 C 122.431 213.474,122.633 213.899,122.881 214.146 C 123.128 214.394,123.331 214.867,123.331 215.197 C 123.331 215.899,124.001 216.654,124.625 216.654 C 125.079 216.654,125.420 217.517,125.427 218.680 C 125.430 219.153,125.610 219.355,126.032 219.355 C 126.472 219.355,126.632 219.555,126.632 220.105 C 126.632 220.518,126.776 220.855,126.953 220.855 C 127.369 220.855,128.132 221.619,128.132 222.034 C 128.132 222.211,128.402 222.356,128.732 222.356 C 129.213 222.356,129.332 222.556,129.332 223.360 C 129.332 224.441,130.168 225.656,130.910 225.656 C 131.162 225.656,131.453 225.994,131.556 226.407 C 131.660 226.819,131.962 227.157,132.229 227.157 C 132.961 227.157,133.833 228.338,133.833 229.331 C 133.833 229.961,134.005 230.259,134.434 230.371 C 134.764 230.457,135.034 230.714,135.034 230.943 C 135.034 231.185,135.345 231.358,135.784 231.358 C 136.325 231.358,136.534 231.519,136.534 231.937 C 136.534 232.308,136.775 232.551,137.206 232.612 C 137.585 232.666,137.927 232.961,137.989 233.287 C 138.128 234.015,138.757 234.659,139.331 234.659 C 139.572 234.659,139.855 234.996,139.958 235.409 C 140.106 235.996,140.338 236.159,141.027 236.159 C 141.797 236.159,141.933 236.292,142.105 237.209 C 142.248 237.969,142.459 238.260,142.869 238.260 C 143.181 238.260,143.436 238.380,143.436 238.527 C 143.436 238.674,143.773 238.879,144.186 238.983 C 144.599 239.086,144.936 239.389,144.936 239.655 C 144.936 240.186,146.028 241.260,146.566 241.260 C 146.752 241.260,147.099 241.530,147.337 241.860 C 147.575 242.191,148.077 242.461,148.453 242.461 C 148.830 242.461,149.137 242.605,149.137 242.782 C 149.137 243.260,149.927 243.961,150.466 243.961 C 150.726 243.961,150.938 244.096,150.938 244.261 C 150.938 244.426,151.275 244.561,151.688 244.561 C 152.155 244.561,152.438 244.731,152.438 245.011 C 152.438 245.259,152.641 245.461,152.888 245.461 C 153.138 245.461,153.338 245.728,153.338 246.062 C 153.338 246.531,153.538 246.662,154.260 246.662 C 154.767 246.662,155.370 246.830,155.600 247.037 C 156.668 247.995,156.955 248.162,157.527 248.162 C 157.864 248.162,158.140 248.297,158.140 248.462 C 158.140 248.627,158.407 248.762,158.734 248.762 C 159.118 248.762,159.395 249.028,159.517 249.512 C 159.620 249.925,159.911 250.263,160.162 250.263 C 160.414 250.263,160.838 250.512,161.105 250.817 C 161.372 251.123,162.097 251.466,162.716 251.581 C 163.335 251.696,163.841 251.919,163.841 252.077 C 163.841 252.234,164.314 252.363,164.891 252.363 C 165.469 252.363,165.941 252.498,165.941 252.663 C 165.941 252.828,166.347 252.963,166.842 252.963 C 167.442 252.963,167.742 253.113,167.742 253.413 C 167.742 253.661,167.944 253.863,168.192 253.863 C 168.440 253.863,168.642 253.998,168.642 254.164 C 168.642 254.329,169.250 254.464,169.992 254.464 C 171.143 254.464,171.343 254.553,171.343 255.064 C 171.343 255.568,171.543 255.664,172.592 255.664 C 173.855 255.664,176.144 256.475,176.144 256.922 C 176.144 257.055,176.803 257.164,177.609 257.164 C 178.822 257.164,179.102 257.268,179.232 257.764 C 179.394 258.383,180.093 258.541,182.071 258.406 C 182.778 258.357,183.046 258.466,183.046 258.802 C 183.046 259.131,183.349 259.265,184.096 259.265 C 184.674 259.265,185.146 259.400,185.146 259.565 C 185.146 259.730,185.349 259.865,185.596 259.865 C 185.844 259.865,186.047 259.730,186.047 259.565 C 186.047 259.042,187.088 259.241,187.459 259.835 C 187.761 260.319,188.259 260.422,190.732 260.511 C 192.720 260.582,193.689 260.735,193.774 260.990 C 193.926 261.448,197.749 261.521,197.749 261.065 C 197.749 260.900,197.952 260.765,198.200 260.765 C 198.447 260.765,198.650 260.900,198.650 261.065 C 198.650 261.230,198.987 261.365,199.400 261.365 C 199.812 261.365,200.150 261.500,200.150 261.665 C 200.150 261.856,202.401 261.965,206.302 261.965 C 210.203 261.965,212.453 261.856,212.453 261.665 C 212.453 261.500,212.779 261.365,213.178 261.365 C 213.577 261.365,213.960 261.197,214.029 260.990 C 214.127 260.700,214.348 260.717,215.004 261.065 C 215.660 261.413,215.881 261.430,215.978 261.140 C 216.127 260.696,217.254 260.630,217.254 261.065 C 217.254 261.502,218.682 261.434,218.830 260.990 C 218.912 260.746,219.628 260.606,220.881 260.588 C 224.611 260.537,224.803 260.503,224.969 259.865 C 225.096 259.382,225.379 259.265,226.417 259.265 C 227.126 259.265,227.755 259.120,227.814 258.943 C 227.875 258.762,228.798 258.609,229.940 258.591 C 231.401 258.569,231.958 258.451,231.958 258.163 C 231.958 257.938,232.285 257.764,232.708 257.764 C 233.121 257.764,233.458 257.629,233.458 257.464 C 233.458 257.298,234.259 257.164,235.259 257.164 C 236.659 257.164,237.059 257.064,237.059 256.714 C 237.059 256.381,237.409 256.264,238.410 256.264 C 239.152 256.264,239.760 256.129,239.760 255.964 C 239.760 255.799,239.933 255.664,240.144 255.664 C 240.355 255.664,240.722 255.394,240.960 255.064 C 241.266 254.639,241.737 254.464,242.567 254.464 C 243.435 254.464,243.924 254.267,244.437 253.713 C 244.958 253.151,245.437 252.963,246.347 252.963 C 247.015 252.963,247.562 252.828,247.562 252.663 C 247.562 252.498,247.832 252.363,248.162 252.363 C 248.495 252.363,248.762 252.163,248.762 251.913 C 248.762 251.599,249.079 251.463,249.812 251.463 C 250.390 251.463,250.863 251.328,250.863 251.163 C 250.863 250.998,251.065 250.863,251.313 250.863 C 251.560 250.863,251.763 250.728,251.763 250.563 C 251.763 250.398,252.033 250.263,252.363 250.263 C 252.693 250.263,252.963 250.128,252.963 249.962 C 252.963 249.797,253.166 249.662,253.413 249.662 C 253.661 249.662,253.863 249.460,253.863 249.212 C 253.863 248.962,254.130 248.762,254.464 248.762 C 254.850 248.762,255.064 248.562,255.064 248.200 C 255.064 247.777,255.359 247.591,256.264 247.447 C 256.984 247.332,257.613 247.016,257.836 246.658 C 258.041 246.330,258.397 246.062,258.627 246.062 C 258.858 246.062,259.359 245.724,259.741 245.311 C 260.132 244.889,260.771 244.561,261.201 244.561 C 261.621 244.561,261.965 244.426,261.965 244.261 C 261.965 244.096,262.168 243.961,262.416 243.961 C 262.663 243.961,262.866 243.758,262.866 243.511 C 262.866 243.254,263.136 243.061,263.496 243.061 C 263.842 243.061,264.504 242.656,264.966 242.161 C 265.429 241.665,265.935 241.260,266.091 241.260 C 266.588 241.260,267.667 240.158,267.667 239.650 C 267.667 239.367,267.910 239.160,268.243 239.160 C 269.318 239.160,269.767 238.808,269.767 237.967 C 269.767 237.248,269.911 237.115,270.844 236.963 C 272.129 236.755,272.768 236.283,272.768 235.543 C 272.768 235.209,273.027 234.964,273.443 234.905 C 273.815 234.852,274.252 234.505,274.415 234.134 C 274.578 233.762,274.881 233.458,275.090 233.458 C 275.298 233.458,275.469 233.256,275.469 233.008 C 275.469 232.761,275.684 232.558,275.947 232.558 C 276.210 232.558,276.496 232.288,276.582 231.958 C 276.669 231.628,276.926 231.358,277.154 231.358 C 277.397 231.358,277.569 231.046,277.569 230.608 C 277.569 230.058,277.729 229.857,278.170 229.857 C 278.610 229.857,278.770 229.657,278.770 229.107 C 278.770 228.507,278.920 228.357,279.520 228.357 C 280.153 228.357,280.270 228.217,280.270 227.457 C 280.270 226.769,280.406 226.557,280.846 226.557 C 281.818 226.557,282.371 226.219,282.371 225.624 C 282.371 225.312,282.506 225.056,282.671 225.056 C 282.836 225.056,282.971 224.719,282.971 224.306 C 282.971 223.893,283.115 223.556,283.292 223.556 C 283.799 223.556,284.471 222.753,284.471 222.148 C 284.471 221.845,284.775 221.464,285.146 221.301 C 285.564 221.118,285.858 220.690,285.916 220.180 C 285.983 219.597,286.182 219.355,286.592 219.355 C 286.919 219.355,287.172 219.149,287.172 218.883 C 287.172 218.624,287.374 218.209,287.622 217.962 C 287.869 217.714,288.072 217.184,288.072 216.783 C 288.072 216.320,288.244 216.054,288.544 216.054 C 289.198 216.054,289.872 215.314,289.872 214.597 C 289.872 214.266,290.075 213.794,290.323 213.546 C 290.570 213.299,290.773 212.951,290.773 212.775 C 290.773 212.598,290.908 212.453,291.073 212.453 C 291.238 212.453,291.373 212.173,291.373 211.832 C 291.373 211.490,291.575 211.007,291.823 210.760 C 292.071 210.512,292.273 210.058,292.273 209.751 C 292.273 209.444,292.543 209.107,292.873 209.002 C 293.320 208.861,293.473 208.548,293.473 207.782 C 293.473 207.066,293.611 206.752,293.923 206.752 C 294.174 206.752,294.374 206.485,294.374 206.152 C 294.374 205.821,294.509 205.551,294.674 205.551 C 294.839 205.551,294.974 205.079,294.974 204.501 C 294.974 203.651,295.088 203.451,295.574 203.451 C 296.085 203.451,296.174 203.251,296.174 202.101 C 296.174 201.100,296.291 200.750,296.624 200.750 C 296.949 200.750,297.074 200.417,297.074 199.550 C 297.074 198.890,297.209 198.350,297.374 198.350 C 297.539 198.350,297.674 197.944,297.674 197.449 C 297.674 196.954,297.809 196.549,297.974 196.549 C 298.140 196.549,298.275 196.212,298.275 195.799 C 298.275 195.332,298.445 195.049,298.725 195.049 C 298.975 195.049,299.175 194.782,299.175 194.449 C 299.175 194.119,299.310 193.848,299.475 193.848 C 299.640 193.848,299.775 193.646,299.775 193.398 C 299.775 193.151,299.640 192.948,299.475 192.948 C 299.310 192.948,299.175 192.678,299.175 192.348 C 299.175 191.948,299.375 191.748,299.775 191.748 C 300.108 191.748,300.375 191.548,300.375 191.298 C 300.375 191.050,300.240 190.848,300.075 190.848 C 299.910 190.848,299.775 190.578,299.775 190.248 C 299.775 189.914,299.975 189.647,300.225 189.647 C 300.575 189.647,300.675 189.247,300.675 187.847 C 300.675 186.847,300.809 186.047,300.975 186.047 C 301.140 186.047,301.275 185.574,301.275 184.996 C 301.275 184.419,301.410 183.946,301.575 183.946 C 301.740 183.946,301.875 183.350,301.875 182.621 C 301.875 181.892,302.029 181.244,302.217 181.181 C 302.416 181.115,302.599 180.196,302.655 178.985 C 302.707 177.840,302.891 176.856,303.063 176.798 C 303.463 176.665,303.475 175.544,303.076 175.544 C 302.911 175.544,302.776 175.341,302.776 175.094 C 302.776 174.846,302.911 174.644,303.076 174.644 C 303.241 174.644,303.376 174.239,303.376 173.743 C 303.376 173.248,303.511 172.843,303.676 172.843 C 303.841 172.843,303.976 172.168,303.976 171.343 C 303.976 170.518,303.841 169.842,303.676 169.842 C 303.511 169.842,303.376 169.572,303.376 169.242 C 303.376 168.912,303.511 168.642,303.676 168.642 C 303.867 168.642,303.976 166.192,303.976 161.890 C 303.976 157.589,303.867 155.139,303.676 155.139 C 303.511 155.139,303.376 154.869,303.376 154.539 C 303.376 154.209,303.241 153.938,303.076 153.938 C 302.911 153.938,302.776 153.601,302.776 153.188 C 302.776 152.776,302.911 152.438,303.076 152.438 C 303.549 152.438,303.426 150.644,302.918 150.137 C 302.602 149.821,302.516 149.375,302.642 148.704 C 302.770 148.022,302.682 147.587,302.350 147.254 C 302.089 146.993,301.875 146.297,301.875 145.708 C 301.875 145.118,301.740 144.636,301.575 144.636 C 301.410 144.636,301.275 144.164,301.275 143.586 C 301.275 143.008,301.140 142.536,300.975 142.536 C 300.804 142.536,300.675 141.635,300.675 140.435 C 300.675 138.768,300.582 138.335,300.225 138.335 C 299.911 138.335,299.775 138.018,299.775 137.284 C 299.775 136.707,299.640 136.234,299.475 136.234 C 299.310 136.234,299.175 135.761,299.175 135.184 C 299.175 134.606,299.040 134.134,298.875 134.134 C 298.710 134.134,298.575 133.678,298.575 133.121 C 298.575 131.258,298.242 130.233,297.637 130.233 C 297.170 130.233,297.074 130.003,297.074 128.882 C 297.074 127.882,296.958 127.532,296.624 127.532 C 296.344 127.532,296.174 127.248,296.174 126.782 C 296.174 126.369,296.039 126.032,295.874 126.032 C 295.709 126.032,295.574 125.424,295.574 124.681 C 295.574 123.938,295.439 123.331,295.274 123.331 C 295.109 123.331,294.974 123.186,294.974 123.009 C 294.974 122.832,294.771 122.485,294.524 122.238 C 294.276 121.990,294.074 121.518,294.074 121.187 C 294.074 120.477,293.401 119.730,292.761 119.730 C 292.431 119.730,292.281 119.338,292.214 118.305 C 292.136 117.088,292.024 116.865,291.448 116.783 C 290.898 116.705,290.773 116.497,290.773 115.658 C 290.773 115.092,290.655 114.629,290.510 114.629 C 290.366 114.629,290.165 114.216,290.064 113.711 C 289.868 112.732,289.238 111.928,288.667 111.928 C 288.238 111.928,287.195 110.716,287.182 110.203 C 287.176 109.996,287.037 109.827,286.872 109.827 C 286.707 109.827,286.572 109.548,286.572 109.206 C 286.572 108.542,285.922 107.727,285.393 107.727 C 285.216 107.727,285.071 107.312,285.071 106.805 C 285.071 105.737,284.480 105.026,283.592 105.026 C 283.129 105.026,282.971 104.835,282.971 104.276 C 282.971 103.726,282.811 103.526,282.371 103.526 C 281.904 103.526,281.770 103.326,281.770 102.626 C 281.770 101.865,281.654 101.725,281.020 101.725 C 280.608 101.725,280.270 101.553,280.270 101.342 C 280.270 101.130,280.000 100.763,279.670 100.525 C 279.340 100.287,279.070 99.920,279.070 99.709 C 279.070 99.498,278.867 99.325,278.620 99.325 C 278.370 99.325,278.170 99.058,278.170 98.725 C 278.170 98.332,277.969 98.125,277.590 98.125 C 277.255 98.125,276.921 97.844,276.800 97.463 C 276.529 96.609,275.935 96.024,275.340 96.024 C 275.081 96.024,274.869 95.821,274.869 95.574 C 274.869 95.326,274.720 95.124,274.539 95.124 C 274.078 95.124,272.468 93.349,272.468 92.841 C 272.468 92.611,272.198 92.423,271.868 92.423 C 271.470 92.423,271.268 92.223,271.268 91.829 C 271.268 91.445,271.002 91.168,270.518 91.046 C 270.105 90.942,269.767 90.737,269.767 90.590 C 269.767 90.443,269.497 90.323,269.167 90.323 C 268.738 90.323,268.567 90.123,268.567 89.618 C 268.567 88.558,267.601 87.622,266.506 87.622 C 265.871 87.622,265.566 87.476,265.566 87.172 C 265.566 86.922,265.300 86.722,264.966 86.722 C 264.566 86.722,264.366 86.522,264.366 86.122 C 264.366 85.681,264.166 85.521,263.616 85.521 C 263.149 85.521,262.866 85.351,262.866 85.071 C 262.866 84.824,262.693 84.621,262.482 84.621 C 262.271 84.621,261.903 84.351,261.665 84.021 C 261.428 83.691,260.983 83.421,260.678 83.421 C 260.142 83.421,259.265 82.768,259.265 82.371 C 259.265 81.878,258.319 81.320,257.486 81.320 C 256.979 81.320,256.564 81.185,256.564 81.020 C 256.564 80.855,256.362 80.720,256.114 80.720 C 255.866 80.720,255.664 80.579,255.664 80.406 C 255.664 79.683,254.185 78.660,252.851 78.460 C 251.764 78.297,251.463 78.128,251.463 77.685 C 251.463 77.319,251.251 77.119,250.863 77.119 C 250.533 77.119,250.263 76.999,250.263 76.853 C 250.263 76.706,249.790 76.497,249.212 76.389 C 248.635 76.281,248.162 76.063,248.162 75.905 C 248.162 75.748,247.854 75.619,247.478 75.619 C 247.102 75.619,246.600 75.349,246.362 75.019 C 246.047 74.582,245.585 74.419,244.663 74.419 C 243.966 74.419,243.313 74.284,243.211 74.119 C 243.109 73.953,242.773 73.818,242.464 73.818 C 242.156 73.818,241.701 73.616,241.453 73.368 C 241.206 73.121,240.858 72.918,240.682 72.918 C 240.505 72.918,240.360 72.783,240.360 72.618 C 240.360 72.453,240.156 72.318,239.906 72.318 C 239.656 72.318,239.217 72.190,238.931 72.033 C 238.644 71.876,237.633 71.663,236.684 71.561 C 235.735 71.459,234.959 71.249,234.959 71.096 C 234.959 70.943,234.621 70.818,234.209 70.818 C 233.796 70.818,233.458 70.683,233.458 70.518 C 233.458 70.353,232.851 70.218,232.108 70.218 C 231.108 70.218,230.758 70.101,230.758 69.767 C 230.758 69.434,230.408 69.317,229.407 69.317 C 228.665 69.317,228.057 69.182,228.057 69.017 C 228.057 68.851,227.257 68.717,226.257 68.717 C 225.256 68.717,224.456 68.584,224.456 68.417 C 224.456 68.252,223.797 68.117,222.992 68.117 C 222.023 68.117,221.396 67.957,221.134 67.642 C 220.836 67.282,220.433 67.212,219.482 67.355 C 218.554 67.494,218.102 67.422,217.760 67.080 C 217.235 66.554,216.654 66.469,216.654 66.917 C 216.654 67.082,216.384 67.217,216.054 67.217 C 215.724 67.217,215.454 67.082,215.454 66.917 C 215.454 66.752,215.251 66.617,215.004 66.617 C 214.756 66.617,214.554 66.752,214.554 66.917 C 214.554 67.082,214.284 67.217,213.953 67.217 C 213.623 67.217,213.353 67.082,213.353 66.917 C 213.353 66.752,212.678 66.617,211.853 66.617 C 211.028 66.617,210.353 66.482,210.353 66.317 C 210.353 66.131,208.752 66.017,206.152 66.017 C 203.551 66.017,201.950 66.131,201.950 66.317 M214.554 76.088 C 216.617 76.340,219.385 76.667,220.705 76.817 C 225.187 77.323,235.723 80.327,240.294 82.402 C 241.165 82.797,242.003 83.121,242.155 83.121 C 242.307 83.121,243.485 83.680,244.772 84.364 C 246.059 85.048,248.125 86.138,249.362 86.788 C 250.600 87.437,252.043 88.296,252.568 88.695 C 253.093 89.095,253.600 89.422,253.695 89.422 C 253.933 89.422,257.648 92.001,259.165 93.219 C 259.853 93.772,260.515 94.224,260.637 94.224 C 260.853 94.224,261.547 94.829,266.475 99.325 C 269.290 101.892,269.065 101.667,271.326 104.179 C 275.133 108.408,275.769 109.148,275.769 109.349 C 275.769 109.465,276.507 110.473,277.408 111.589 C 278.310 112.705,279.226 113.946,279.444 114.348 C 279.662 114.750,280.496 116.090,281.299 117.325 C 285.133 123.230,289.293 132.156,290.601 137.285 C 290.896 138.440,291.212 139.587,291.304 139.835 C 291.395 140.083,291.730 141.163,292.046 142.236 C 292.598 144.103,292.808 145.208,293.507 149.887 C 293.679 151.043,293.955 152.596,294.121 153.338 C 294.903 156.852,294.714 170.882,293.810 176.444 C 293.663 177.352,293.385 179.242,293.193 180.645 C 293.001 182.048,292.578 184.141,292.252 185.296 C 291.927 186.452,291.469 188.072,291.235 188.897 C 291.001 189.722,290.642 191.005,290.439 191.748 C 290.235 192.491,289.957 193.227,289.820 193.383 C 289.684 193.540,289.572 193.845,289.572 194.062 C 289.572 194.278,289.313 195.028,288.995 195.727 C 287.406 199.228,286.872 200.493,286.872 200.755 C 286.872 200.913,286.381 201.955,285.780 203.071 C 285.180 204.188,284.292 205.844,283.807 206.752 C 282.759 208.713,279.093 214.535,278.550 215.100 C 278.341 215.318,278.169 215.588,278.168 215.700 C 278.167 215.812,277.794 216.309,277.339 216.804 C 276.884 217.299,276.262 218.093,275.958 218.569 C 274.462 220.903,266.889 228.857,263.869 231.265 C 263.349 231.681,262.341 232.547,261.631 233.190 C 260.920 233.833,260.206 234.359,260.043 234.359 C 259.881 234.359,259.379 234.712,258.929 235.143 C 258.479 235.574,257.444 236.351,256.630 236.868 C 255.817 237.386,254.373 238.330,253.422 238.966 C 251.251 240.419,248.154 242.131,244.861 243.699 C 238.696 246.634,237.261 247.193,231.508 248.899 C 230.023 249.340,228.470 249.821,228.057 249.969 C 227.355 250.221,226.148 250.487,222.506 251.189 C 213.665 252.894,198.414 252.902,190.248 251.206 C 189.505 251.052,188.087 250.768,187.097 250.575 C 185.247 250.215,184.786 250.089,181.695 249.098 C 180.705 248.781,179.085 248.292,178.095 248.012 C 177.104 247.731,176.024 247.385,175.694 247.242 C 174.749 246.833,171.923 245.621,170.443 244.991 C 167.680 243.814,161.444 240.484,159.201 238.989 C 154.653 235.955,153.752 235.316,153.377 234.859 C 153.150 234.584,152.827 234.359,152.659 234.359 C 152.490 234.359,151.597 233.717,150.673 232.933 C 149.748 232.149,148.726 231.305,148.400 231.058 C 147.503 230.375,139.235 222.001,139.235 221.774 C 139.235 221.665,138.695 221.014,138.035 220.327 C 137.374 219.640,136.834 218.990,136.834 218.883 C 136.834 218.776,136.316 218.062,135.683 217.296 C 134.532 215.903,129.332 208.112,129.332 207.779 C 129.332 207.682,128.888 206.837,128.344 205.902 C 127.801 204.966,126.640 202.581,125.764 200.600 C 124.888 198.620,123.993 196.594,123.774 196.099 C 123.111 194.597,122.397 192.558,122.145 191.448 C 122.015 190.870,121.701 189.790,121.449 189.047 C 120.810 187.166,119.536 181.540,119.140 178.845 C 118.958 177.607,118.645 175.716,118.444 174.644 C 117.960 172.054,117.951 155.869,118.433 153.788 C 118.624 152.963,118.938 151.073,119.130 149.587 C 119.468 146.981,120.714 141.218,121.207 139.985 C 121.571 139.076,122.057 137.405,122.291 136.258 C 122.406 135.693,123.106 133.802,123.846 132.057 C 124.585 130.311,125.382 128.366,125.617 127.735 C 126.001 126.703,126.860 125.026,129.102 120.930 C 130.269 118.799,134.205 112.689,134.483 112.578 C 134.621 112.523,134.734 112.362,134.734 112.220 C 134.734 112.078,135.206 111.447,135.783 110.819 C 136.359 110.191,136.832 109.562,136.833 109.422 C 136.836 108.853,147.303 97.824,147.839 97.824 C 147.981 97.824,148.904 97.017,149.892 96.031 C 150.880 95.044,151.782 94.234,151.897 94.230 C 152.012 94.227,152.972 93.568,154.030 92.768 C 155.087 91.967,156.749 90.800,157.721 90.175 C 158.694 89.550,160.030 88.681,160.690 88.245 C 161.350 87.808,162.971 86.920,164.291 86.270 C 165.611 85.620,166.759 85.017,166.842 84.930 C 166.988 84.776,169.202 83.762,171.943 82.595 C 174.569 81.477,177.216 80.491,178.995 79.968 C 179.985 79.677,181.538 79.200,182.446 78.910 C 183.353 78.619,185.176 78.151,186.497 77.869 C 187.817 77.588,189.289 77.237,189.767 77.089 C 190.246 76.940,191.108 76.819,191.683 76.819 C 192.258 76.819,193.555 76.684,194.564 76.519 C 200.502 75.548,208.675 75.371,214.554 76.088 M392.798 259.565 C 392.798 259.730,392.326 259.865,391.748 259.865 C 391.170 259.865,390.698 260.000,390.698 260.165 C 390.698 260.330,390.501 260.465,390.261 260.465 C 390.021 260.465,389.487 260.803,389.075 261.215 C 388.662 261.628,388.183 261.965,388.011 261.965 C 387.838 261.965,387.697 262.303,387.697 262.716 C 387.697 263.128,387.832 263.466,387.997 263.466 C 388.164 263.466,388.297 264.266,388.297 265.266 C 388.297 266.267,388.164 267.067,387.997 267.067 C 387.832 267.067,387.697 267.337,387.697 267.667 C 387.697 267.997,387.562 268.267,387.397 268.267 C 387.232 268.267,387.097 268.942,387.097 269.767 C 387.097 270.901,386.987 271.268,386.647 271.268 C 386.397 271.268,386.197 271.535,386.197 271.868 C 386.197 272.198,386.062 272.468,385.896 272.468 C 385.731 272.468,385.596 272.671,385.596 272.918 C 385.596 273.166,385.461 273.368,385.296 273.368 C 385.131 273.368,384.996 273.783,384.996 274.290 C 384.996 275.209,384.427 276.069,383.817 276.069 C 383.641 276.069,383.496 276.339,383.496 276.669 C 383.496 277.071,383.296 277.269,382.891 277.269 C 382.495 277.269,382.113 277.632,381.785 278.320 C 381.510 278.897,381.174 279.370,381.040 279.370 C 380.905 279.370,380.795 279.572,380.795 279.820 C 380.795 280.122,380.494 280.270,379.881 280.270 C 378.981 280.270,377.494 281.383,377.494 282.057 C 377.494 282.229,377.292 282.371,377.044 282.371 C 376.797 282.371,376.594 282.506,376.594 282.671 C 376.594 282.836,376.268 282.971,375.869 282.971 C 375.470 282.971,375.094 283.120,375.033 283.302 C 374.970 283.493,374.136 283.640,373.058 283.650 C 371.711 283.663,371.193 283.779,371.193 284.068 C 371.193 284.402,343.655 284.452,206.227 284.367 C 30.472 284.258,37.209 284.316,37.209 282.909 C 37.209 282.494,36.969 282.371,36.159 282.371 C 35.426 282.371,35.109 282.235,35.109 281.920 C 35.109 281.620,34.809 281.470,34.209 281.470 C 33.508 281.470,33.308 281.337,33.308 280.870 C 33.308 280.430,33.108 280.270,32.558 280.270 C 32.091 280.270,31.808 280.100,31.808 279.820 C 31.808 279.572,31.673 279.370,31.508 279.370 C 31.343 279.370,31.206 279.134,31.203 278.845 C 31.201 278.556,30.525 277.665,29.703 276.865 C 28.880 276.065,28.207 275.221,28.207 274.989 C 28.207 274.758,28.072 274.569,27.907 274.569 C 27.742 274.569,27.607 274.299,27.607 273.968 C 27.607 273.638,27.472 273.368,27.307 273.368 C 27.142 273.368,27.007 273.166,27.007 272.918 C 27.007 272.671,26.804 272.468,26.557 272.468 C 26.307 272.468,26.107 272.201,26.107 271.868 C 26.107 271.538,25.971 271.268,25.806 271.268 C 25.641 271.268,25.506 270.739,25.506 270.093 C 25.506 269.446,25.350 268.865,25.158 268.801 C 24.925 268.724,24.806 267.671,24.798 265.625 C 24.790 263.320,24.691 262.566,24.396 262.566 C 24.182 262.566,24.006 262.345,24.006 262.076 C 24.006 261.510,22.905 260.465,22.310 260.465 C 22.087 260.465,21.905 260.330,21.905 260.165 C 21.905 259.998,21.105 259.865,20.105 259.865 C 19.105 259.865,18.305 259.998,18.305 260.165 C 18.305 260.330,18.035 260.465,17.704 260.465 C 17.221 260.465,17.104 260.665,17.104 261.490 C 17.104 262.054,16.985 262.561,16.839 262.616 C 16.293 262.821,16.085 268.267,16.622 268.267 C 16.993 268.267,17.104 268.577,17.104 269.617 C 17.104 270.360,17.239 270.968,17.404 270.968 C 17.569 270.968,17.704 271.305,17.704 271.718 C 17.704 272.131,17.839 272.468,18.005 272.468 C 18.170 272.468,18.305 273.076,18.305 273.818 C 18.305 274.819,18.421 275.169,18.755 275.169 C 19.002 275.169,19.205 275.371,19.205 275.619 C 19.205 275.866,19.340 276.069,19.505 276.069 C 19.670 276.069,19.805 276.339,19.805 276.669 C 19.805 276.999,19.922 277.269,20.066 277.269 C 20.210 277.269,20.396 277.881,20.480 278.628 C 20.578 279.499,20.862 280.186,21.269 280.539 C 21.619 280.842,21.905 281.182,21.905 281.293 C 21.905 281.534,22.395 282.141,23.364 283.102 C 24.412 284.141,24.493 284.223,25.656 285.446 C 26.329 286.153,27.002 286.572,27.467 286.572 C 27.940 286.572,28.207 286.742,28.207 287.043 C 28.207 287.771,28.994 288.391,30.154 288.580 C 30.734 288.674,31.208 288.868,31.208 289.012 C 31.208 289.155,31.613 289.272,32.108 289.272 C 32.808 289.272,33.008 289.406,33.008 289.872 C 33.008 290.358,33.208 290.473,34.059 290.473 C 34.792 290.473,35.109 290.608,35.109 290.923 C 35.109 291.240,35.430 291.373,36.199 291.373 C 36.950 291.373,37.468 291.579,37.864 292.036 C 38.349 292.595,38.530 292.642,39.020 292.336 C 39.818 291.838,40.810 291.880,40.810 292.412 C 40.810 292.795,50.404 292.851,117.254 292.861 C 168.043 292.868,193.732 292.973,193.798 293.173 C 193.935 293.584,214.466 293.585,214.604 293.174 C 214.670 292.976,241.259 292.872,293.248 292.867 C 362.368 292.861,371.793 292.807,371.793 292.417 C 371.793 292.079,372.187 291.973,373.443 291.973 C 374.351 291.973,375.094 291.838,375.094 291.673 C 375.094 291.508,375.420 291.373,375.819 291.373 C 376.218 291.373,376.595 291.221,376.657 291.035 C 376.719 290.849,377.507 290.626,378.407 290.541 C 379.479 290.439,380.213 290.192,380.530 289.829 C 380.797 289.523,381.235 289.272,381.503 289.272 C 382.119 289.272,383.496 288.094,383.496 287.568 C 383.496 287.350,383.698 287.172,383.946 287.172 C 384.194 287.172,384.396 287.037,384.396 286.872 C 384.396 286.707,384.666 286.572,384.996 286.572 C 385.330 286.572,385.596 286.372,385.596 286.122 C 385.596 285.868,385.865 285.671,386.210 285.671 C 386.849 285.671,388.297 284.431,388.297 283.885 C 388.297 283.712,388.442 283.571,388.619 283.571 C 389.148 283.571,389.797 282.756,389.797 282.092 C 389.797 281.750,389.932 281.470,390.098 281.470 C 390.263 281.470,390.398 281.210,390.398 280.892 C 390.398 280.573,390.600 280.110,390.848 279.863 C 391.095 279.615,391.298 279.268,391.298 279.091 C 391.298 278.914,391.553 278.770,391.864 278.770 C 392.305 278.770,392.475 278.471,392.632 277.419 C 392.780 276.433,392.972 276.068,393.342 276.067 C 394.070 276.063,394.604 274.724,394.808 272.393 C 394.906 271.279,395.101 270.368,395.242 270.368 C 395.383 270.368,395.499 269.895,395.499 269.317 C 395.499 268.467,395.613 268.267,396.099 268.267 C 396.720 268.267,396.927 267.543,396.399 267.217 C 396.234 267.115,396.099 266.027,396.099 264.798 C 396.099 263.510,395.972 262.566,395.799 262.566 C 395.634 262.566,395.499 262.161,395.499 261.665 C 395.499 261.065,395.349 260.765,395.049 260.765 C 394.801 260.765,394.599 260.621,394.599 260.444 C 394.599 259.966,393.809 259.265,393.270 259.265 C 393.010 259.265,392.798 259.400,392.798 259.565 " stroke="none" fill="#040404" fill-rule="evenodd"></path><path id="path1" d="M199.784 76.085 C 199.671 76.198,198.458 76.412,197.088 76.561 C 192.672 77.040,188.332 77.662,186.947 78.014 C 186.204 78.202,185.191 78.433,184.696 78.526 C 184.201 78.619,183.661 78.798,183.496 78.923 C 183.331 79.048,182.723 79.242,182.146 79.354 C 181.568 79.466,180.420 79.801,179.595 80.098 C 176.985 81.038,174.218 81.963,173.518 82.130 C 173.147 82.218,172.843 82.410,172.843 82.556 C 172.843 82.701,172.581 82.821,172.261 82.821 C 171.940 82.821,171.606 82.938,171.517 83.082 C 171.428 83.226,170.936 83.427,170.424 83.530 C 169.911 83.632,169.111 83.987,168.646 84.319 C 168.180 84.650,167.584 84.921,167.321 84.921 C 167.057 84.921,166.842 85.056,166.842 85.221 C 166.842 85.386,166.704 85.521,166.536 85.521 C 166.367 85.521,165.726 85.839,165.110 86.226 C 164.495 86.614,163.490 87.112,162.877 87.333 C 162.264 87.554,161.454 88.013,161.077 88.353 C 160.699 88.694,159.985 89.175,159.490 89.422 C 158.995 89.669,158.482 90.041,158.350 90.247 C 158.218 90.454,157.964 90.623,157.785 90.623 C 157.403 90.623,154.434 92.700,154.289 93.070 C 154.234 93.209,153.997 93.323,153.763 93.323 C 153.530 93.323,153.338 93.429,153.338 93.559 C 153.338 93.688,152.899 94.053,152.363 94.370 C 151.827 94.686,151.185 95.167,150.938 95.438 C 150.690 95.710,149.493 96.797,148.277 97.853 C 145.019 100.685,140.383 105.359,139.103 107.102 C 138.487 107.941,137.891 108.627,137.777 108.627 C 137.664 108.627,137.316 109.100,137.005 109.677 C 136.694 110.255,136.326 110.728,136.187 110.728 C 136.048 110.728,135.934 110.919,135.934 111.153 C 135.934 111.387,135.814 111.623,135.668 111.678 C 135.374 111.789,133.233 114.535,133.233 114.801 C 133.233 114.893,132.896 115.411,132.483 115.952 C 132.071 116.493,131.733 117.045,131.733 117.179 C 131.733 117.313,131.426 117.841,131.052 118.351 C 130.677 118.862,130.176 119.685,129.939 120.180 C 129.702 120.675,129.353 121.283,129.162 121.530 C 128.972 121.778,128.415 122.723,127.924 123.631 C 127.434 124.539,126.878 125.551,126.689 125.881 C 126.500 126.212,126.204 127.049,126.030 127.743 C 125.857 128.437,125.550 129.180,125.348 129.394 C 125.146 129.608,124.797 130.323,124.572 130.983 C 124.346 131.643,123.961 132.656,123.716 133.233 C 122.771 135.458,122.263 137.046,121.965 138.713 C 121.853 139.334,121.643 139.916,121.496 140.006 C 121.350 140.096,121.230 140.457,121.230 140.808 C 121.230 141.159,120.969 142.197,120.650 143.116 C 120.115 144.656,119.552 148.006,119.208 151.688 C 119.131 152.513,118.957 153.325,118.821 153.492 C 118.058 154.432,118.262 171.853,119.091 176.444 C 119.254 177.352,119.546 179.310,119.738 180.795 C 119.931 182.281,120.345 184.248,120.659 185.166 C 120.973 186.085,121.230 187.124,121.230 187.474 C 121.230 187.825,121.340 188.180,121.475 188.263 C 121.609 188.346,121.978 189.502,122.295 190.831 C 122.612 192.161,122.975 193.248,123.101 193.248 C 123.227 193.248,123.331 193.493,123.331 193.792 C 123.331 194.091,123.668 195.036,124.081 195.891 C 124.494 196.747,124.831 197.578,124.831 197.739 C 124.831 197.900,125.101 198.512,125.431 199.100 C 125.761 199.687,126.032 200.313,126.032 200.489 C 126.032 200.842,126.953 202.912,127.216 203.151 C 127.371 203.291,127.918 204.295,129.422 207.202 C 129.764 207.862,130.559 209.171,131.188 210.111 C 131.818 211.051,132.333 211.877,132.333 211.947 C 132.333 212.196,135.120 216.225,136.043 217.311 C 136.561 217.920,137.524 219.120,138.185 219.978 C 140.276 222.696,146.571 229.209,148.537 230.691 C 148.785 230.877,149.748 231.677,150.679 232.469 C 152.907 234.365,156.223 236.759,156.622 236.759 C 156.797 236.759,156.939 236.894,156.939 237.059 C 156.939 237.224,157.121 237.359,157.343 237.359 C 157.565 237.359,157.992 237.630,158.292 237.962 C 158.591 238.293,159.186 238.748,159.613 238.973 C 160.968 239.687,163.055 240.854,164.141 241.506 C 164.719 241.852,165.664 242.370,166.242 242.657 C 166.819 242.945,167.359 243.268,167.442 243.376 C 167.524 243.484,168.330 243.815,169.232 244.112 C 170.134 244.409,171.552 245.022,172.383 245.473 C 173.214 245.925,174.331 246.387,174.865 246.501 C 175.400 246.615,175.914 246.832,176.008 246.985 C 176.102 247.137,176.443 247.262,176.766 247.262 C 177.089 247.262,177.587 247.380,177.874 247.525 C 178.398 247.790,178.994 247.977,182.296 248.912 C 183.286 249.193,184.366 249.535,184.696 249.672 C 185.026 249.809,185.701 249.988,186.197 250.069 C 186.692 250.150,188.447 250.496,190.098 250.838 C 191.748 251.181,193.866 251.461,194.804 251.462 C 195.742 251.462,196.890 251.612,197.355 251.794 C 198.502 252.244,214.092 252.242,215.248 251.792 C 215.713 251.611,216.928 251.456,217.949 251.447 C 218.970 251.438,221.088 251.161,222.656 250.831 C 224.224 250.501,225.911 250.162,226.407 250.076 C 226.902 249.991,227.577 249.809,227.907 249.672 C 228.237 249.535,229.317 249.198,230.308 248.925 C 231.298 248.651,232.343 248.300,232.629 248.144 C 232.916 247.989,233.482 247.862,233.887 247.862 C 234.292 247.862,234.707 247.727,234.809 247.562 C 234.911 247.397,235.241 247.262,235.542 247.262 C 235.844 247.262,236.477 247.060,236.950 246.814 C 237.423 246.567,238.038 246.364,238.317 246.363 C 238.596 246.362,238.908 246.227,239.010 246.062 C 239.112 245.896,239.457 245.761,239.778 245.761 C 240.098 245.761,240.360 245.626,240.360 245.461 C 240.360 245.296,240.552 245.161,240.786 245.161 C 241.020 245.161,241.594 244.974,242.061 244.745 C 242.528 244.516,243.653 243.974,244.561 243.542 C 245.469 243.109,246.954 242.329,247.862 241.809 C 248.770 241.289,250.120 240.540,250.863 240.146 C 253.094 238.962,253.555 238.672,254.269 238.001 C 254.645 237.648,255.112 237.359,255.308 237.359 C 255.504 237.359,255.664 237.224,255.664 237.059 C 255.664 236.894,255.841 236.759,256.057 236.759 C 256.274 236.759,256.741 236.489,257.095 236.159 C 257.449 235.829,257.806 235.559,257.886 235.559 C 257.967 235.559,258.398 235.221,258.843 234.809 C 259.288 234.396,259.821 234.059,260.028 234.059 C 260.234 234.059,260.818 233.586,261.325 233.008 C 261.832 232.431,262.318 231.958,262.404 231.958 C 263.392 231.958,275.769 219.281,275.769 218.270 C 275.769 218.138,276.219 217.551,276.770 216.967 C 277.752 215.923,282.971 207.978,282.971 207.525 C 282.971 207.398,283.223 206.936,283.532 206.498 C 284.212 205.534,286.572 201.019,286.572 200.683 C 286.572 200.551,286.842 199.837,287.172 199.097 C 287.502 198.356,288.036 197.157,288.358 196.432 C 288.680 195.708,289.033 194.761,289.141 194.329 C 289.250 193.896,289.459 193.469,289.606 193.378 C 289.752 193.287,289.872 192.891,289.872 192.498 C 289.872 192.105,290.008 191.700,290.173 191.598 C 290.338 191.496,290.473 190.982,290.474 190.455 C 290.475 189.928,290.678 189.111,290.925 188.638 C 291.171 188.165,291.373 187.567,291.373 187.309 C 291.373 186.845,291.829 185.262,292.298 184.096 C 292.430 183.766,292.604 182.956,292.683 182.296 C 292.763 181.635,293.048 179.610,293.318 177.794 C 294.748 168.162,294.758 160.456,293.352 150.638 C 293.104 148.905,292.817 146.879,292.714 146.137 C 292.611 145.394,292.421 144.516,292.292 144.186 C 291.761 142.835,291.373 141.406,291.373 140.807 C 291.373 140.457,291.242 140.089,291.081 139.990 C 290.921 139.891,290.701 139.138,290.592 138.316 C 290.483 137.493,290.276 136.748,290.133 136.660 C 289.990 136.571,289.872 136.196,289.872 135.826 C 289.872 135.456,289.756 135.026,289.614 134.869 C 289.472 134.712,289.107 133.841,288.804 132.933 C 288.500 132.026,288.143 131.155,288.011 130.998 C 287.880 130.841,287.772 130.470,287.772 130.173 C 287.772 129.875,287.664 129.632,287.532 129.632 C 287.400 129.632,287.113 129.126,286.895 128.507 C 286.404 127.118,284.973 124.185,284.005 122.581 C 283.606 121.920,283.005 120.840,282.670 120.180 C 282.335 119.520,281.522 118.170,280.864 117.179 C 280.206 116.189,279.577 115.176,279.466 114.929 C 279.355 114.681,279.185 114.411,279.089 114.329 C 278.993 114.246,278.542 113.605,278.087 112.903 C 277.633 112.202,277.128 111.628,276.965 111.628 C 276.802 111.628,276.669 111.484,276.669 111.308 C 276.669 110.977,275.440 109.232,274.463 108.177 C 274.157 107.847,273.550 107.104,273.113 106.527 C 272.293 105.443,266.101 99.251,264.974 98.388 C 264.624 98.120,263.608 97.215,262.716 96.377 C 261.824 95.540,260.683 94.641,260.180 94.381 C 259.676 94.121,259.265 93.777,259.265 93.616 C 259.265 93.455,259.074 93.323,258.840 93.323 C 258.606 93.323,258.370 93.209,258.315 93.070 C 258.164 92.687,255.193 90.623,254.793 90.623 C 254.602 90.623,254.367 90.420,254.272 90.173 C 254.177 89.925,253.961 89.722,253.792 89.722 C 253.623 89.722,252.827 89.250,252.023 88.672 C 251.219 88.095,250.393 87.612,250.187 87.600 C 249.981 87.588,249.407 87.316,248.912 86.995 C 248.417 86.674,247.506 86.191,246.887 85.921 C 246.268 85.651,245.761 85.316,245.761 85.176 C 245.761 85.036,245.491 84.921,245.161 84.921 C 244.831 84.921,244.561 84.818,244.561 84.692 C 244.561 84.458,242.378 83.421,241.887 83.421 C 241.738 83.421,241.098 83.166,240.463 82.854 C 239.039 82.155,237.289 81.471,235.709 80.997 C 235.049 80.799,234.239 80.530,233.908 80.398 C 233.578 80.267,232.836 80.021,232.258 79.851 C 231.680 79.681,230.735 79.386,230.158 79.195 C 229.580 79.004,228.567 78.739,227.907 78.606 C 227.247 78.474,226.167 78.208,225.506 78.016 C 224.846 77.825,222.821 77.473,221.005 77.235 C 219.190 76.997,216.759 76.658,215.604 76.481 C 213.161 76.109,200.088 75.781,199.784 76.085 M219.963 78.298 C 237.831 80.189,260.310 92.793,272.719 107.877 C 273.262 108.537,274.042 109.482,274.453 109.977 C 274.863 110.473,276.253 112.327,277.540 114.098 C 278.828 115.869,279.991 117.219,280.124 117.099 C 280.257 116.978,280.273 117.042,280.159 117.241 C 280.045 117.440,280.674 118.857,281.558 120.392 C 292.266 138.983,295.792 160.786,291.519 181.995 C 290.726 185.935,289.176 191.364,288.713 191.827 C 288.335 192.205,288.667 192.400,273.518 182.883 C 270.053 180.705,257.629 172.944,245.911 165.635 C 234.194 158.326,219.610 149.212,213.503 145.383 C 196.576 134.767,178.381 123.393,175.617 121.699 C 166.456 116.083,146.184 103.334,145.700 102.883 C 145.123 102.345,145.134 102.317,146.451 101.021 C 154.898 92.703,168.552 84.667,180.045 81.251 C 183.734 80.154,184.999 79.803,186.197 79.543 C 186.857 79.399,188.445 79.055,189.726 78.778 C 194.276 77.794,212.471 77.505,219.963 78.298 M134.696 132.375 C 138.430 134.709,145.401 139.078,150.188 142.083 C 154.974 145.088,165.776 151.841,174.194 157.089 C 182.611 162.338,191.658 167.985,194.299 169.640 C 196.939 171.294,201.260 173.987,203.901 175.625 C 206.542 177.264,211.538 180.396,215.004 182.586 C 218.470 184.776,229.272 191.533,239.010 197.603 C 270.663 217.334,272.915 218.755,273.196 219.174 C 274.275 220.785,260.983 232.878,252.270 238.212 C 228.162 252.970,200.847 255.263,173.293 244.843 C 171.328 244.100,162.581 239.700,160.752 238.535 C 153.205 233.727,147.053 228.478,140.466 221.227 C 138.167 218.696,132.033 210.231,132.033 209.588 C 132.033 209.482,131.780 209.037,131.470 208.598 C 130.566 207.318,127.974 202.314,126.783 199.550 C 126.179 198.147,125.507 196.594,125.289 196.099 C 124.944 195.314,123.582 191.298,122.745 188.597 C 118.390 174.534,118.310 155.385,122.548 140.735 C 123.868 136.171,123.983 135.826,125.345 132.333 C 126.723 128.797,127.082 128.132,127.606 128.132 C 127.771 128.132,130.962 130.042,134.696 132.375 " stroke="none" fill="#faf6f5" fill-rule="evenodd"></path><path id="path2" d="M193.398 78.816 C 184.929 79.646,171.840 84.257,162.641 89.652 C 156.362 93.335,145.896 101.455,146.211 102.400 C 146.271 102.578,148.405 104.032,150.954 105.630 C 157.897 109.982,171.368 118.392,180.495 124.072 C 184.951 126.845,191.298 130.804,194.599 132.870 C 202.548 137.846,218.032 147.550,219.355 148.385 C 221.560 149.777,232.740 156.757,240.510 161.593 C 244.966 164.366,250.705 167.945,253.263 169.545 C 255.821 171.146,260.143 173.849,262.866 175.551 C 265.589 177.254,271.395 180.896,275.769 183.644 C 288.996 191.954,288.178 191.484,288.478 190.949 C 288.911 190.174,290.375 184.627,291.038 181.245 C 296.697 152.391,287.988 123.789,267.232 103.067 C 254.980 90.834,241.357 83.440,224.006 79.605 C 220.559 78.843,198.840 78.283,193.398 78.816 M127.291 129.244 C 118.261 146.840,117.677 174.554,125.887 195.797 C 144.843 244.844,205.277 265.834,249.935 238.882 C 251.323 238.045,252.511 237.359,252.574 237.359 C 252.722 237.359,259.665 232.496,259.865 232.253 C 259.947 232.152,261.230 231.048,262.716 229.799 C 265.575 227.395,270.977 221.959,272.115 220.341 L 272.793 219.377 271.205 218.354 C 270.332 217.792,266.512 215.404,262.716 213.048 C 251.651 206.182,240.127 199.002,237.209 197.156 C 234.314 195.325,228.492 191.678,221.832 187.522 C 202.595 175.521,193.239 169.676,192.348 169.104 C 191.770 168.733,190.353 167.850,189.197 167.143 C 188.042 166.435,185.341 164.751,183.196 163.400 C 181.050 162.049,174.906 158.202,169.542 154.851 C 164.179 151.499,158.710 148.081,157.389 147.255 C 141.752 137.465,130.425 130.408,128.675 129.365 C 127.626 128.740,127.553 128.734,127.291 129.244 " stroke="none" fill="#fc0404" fill-rule="evenodd"></path><path id="path3" d="M186.497 79.653 C 171.977 82.949,157.780 90.503,147.216 100.551 C 146.152 101.563,145.531 102.374,145.661 102.584 C 145.930 103.020,145.919 103.013,165.341 115.153 C 174.171 120.673,181.868 125.498,182.446 125.876 C 183.023 126.254,186.939 128.697,191.148 131.305 C 195.356 133.913,200.825 137.323,203.301 138.883 C 205.776 140.442,209.152 142.555,210.803 143.577 C 215.821 146.686,242.758 163.518,245.161 165.047 C 258.517 173.543,287.731 191.568,288.167 191.581 C 289.016 191.606,289.956 188.785,291.345 182.038 C 295.634 161.214,292.323 139.914,281.919 121.396 C 279.073 116.332,276.176 112.168,272.613 108.027 C 262.795 96.612,251.714 88.740,237.659 83.195 C 232.395 81.118,223.963 78.866,221.755 78.948 C 221.343 78.963,222.288 79.247,223.856 79.579 C 251.273 85.385,273.731 103.461,285.299 129.032 C 293.242 146.592,294.840 168.380,289.581 187.436 C 289.120 189.108,288.623 190.689,288.478 190.949 C 288.178 191.484,288.996 191.954,275.769 183.644 C 271.395 180.896,265.589 177.254,262.866 175.551 C 260.143 173.849,255.821 171.146,253.263 169.545 C 250.705 167.945,244.966 164.366,240.510 161.593 C 232.740 156.757,221.560 149.777,219.355 148.385 C 218.032 147.550,202.548 137.846,194.599 132.870 C 191.298 130.804,184.951 126.845,180.495 124.072 C 171.368 118.392,157.897 109.982,150.954 105.630 C 148.405 104.032,146.271 102.578,146.211 102.400 C 146.040 101.885,151.931 96.818,156.039 93.946 C 166.424 86.687,176.846 82.120,188.897 79.548 C 190.513 79.203,191.176 78.972,190.548 78.971 C 189.970 78.971,188.147 79.278,186.497 79.653 M126.956 128.920 C 126.612 129.356,126.332 129.869,126.332 130.059 C 126.332 130.250,125.856 131.548,125.275 132.945 C 112.464 163.730,121.065 202.855,145.892 226.729 C 176.237 255.908,222.601 259.307,257.014 234.876 C 263.121 230.540,273.201 220.866,273.006 219.528 C 272.906 218.844,272.515 218.590,246.512 202.397 C 236.774 196.333,227.254 190.394,225.356 189.199 C 223.458 188.003,218.462 184.870,214.254 182.235 C 210.045 179.600,204.981 176.426,203.001 175.182 C 201.020 173.938,195.214 170.323,190.098 167.147 C 184.981 163.972,179.580 160.599,178.095 159.652 C 176.609 158.705,173.908 157.016,172.093 155.898 C 170.278 154.780,168.117 153.434,167.292 152.907 C 166.467 152.379,162.686 150.013,158.890 147.649 C 155.094 145.285,151.313 142.912,150.488 142.376 C 147.513 140.443,129.848 129.449,127.781 128.244 C 127.670 128.179,127.299 128.483,126.956 128.920 M136.534 134.227 C 142.400 137.878,147.335 140.960,157.389 147.255 C 158.710 148.081,164.179 151.499,169.542 154.851 C 174.906 158.202,181.050 162.049,183.196 163.400 C 185.341 164.751,188.042 166.435,189.197 167.143 C 190.353 167.850,191.770 168.733,192.348 169.104 C 193.239 169.676,202.595 175.521,221.832 187.522 C 228.492 191.678,234.314 195.325,237.209 197.156 C 240.127 199.002,251.651 206.182,262.716 213.048 C 266.512 215.404,270.332 217.792,271.205 218.354 L 272.793 219.377 272.115 220.341 C 270.977 221.959,265.575 227.395,262.716 229.799 C 261.230 231.048,259.947 232.152,259.865 232.253 C 259.665 232.496,252.722 237.359,252.574 237.359 C 252.511 237.359,251.323 238.045,249.935 238.882 C 205.277 265.834,144.843 244.844,125.887 195.797 C 117.677 174.554,118.261 146.840,127.291 129.244 C 127.618 128.606,126.743 128.134,136.534 134.227 " stroke="none" fill="#fb5958" fill-rule="evenodd"></path><path id="path4" d="M203.541 75.843 C 205.159 75.897,207.725 75.897,209.243 75.842 C 210.761 75.788,209.437 75.744,206.302 75.744 C 203.166 75.744,201.924 75.789,203.541 75.843 M196.549 76.239 C 195.476 76.369,193.478 76.603,192.109 76.761 C 190.740 76.918,189.526 77.141,189.411 77.256 C 189.179 77.488,192.188 77.227,194.729 76.796 C 195.626 76.644,196.908 76.510,197.579 76.498 C 198.251 76.486,199.070 76.361,199.400 76.219 C 200.167 75.890,199.404 75.895,196.549 76.239 M213.653 76.202 C 214.834 76.494,219.180 77.051,221.905 77.260 C 224.511 77.459,222.198 76.964,218.605 76.552 C 213.799 76.003,212.464 75.908,213.653 76.202 M187.097 77.719 L 186.497 77.977 187.097 77.994 C 187.427 78.003,187.899 77.879,188.147 77.719 C 188.744 77.334,187.994 77.334,187.097 77.719 M224.606 77.701 C 225.873 78.209,227.375 78.620,227.967 78.620 C 228.306 78.620,229.069 78.822,229.661 79.070 C 230.254 79.317,230.979 79.510,231.273 79.498 C 231.896 79.474,229.388 78.644,226.507 77.921 C 224.395 77.391,223.607 77.300,224.606 77.701 M196.249 78.050 C 187.286 78.547,190.090 78.770,205.315 78.770 C 213.945 78.770,221.815 78.859,222.806 78.967 L 224.606 79.165 222.956 78.754 C 219.484 77.891,205.681 77.527,196.249 78.050 M184.996 78.161 C 184.831 78.212,183.920 78.484,182.971 78.765 C 182.022 79.046,181.245 79.341,181.245 79.422 C 181.245 79.647,183.160 79.191,183.481 78.888 C 183.638 78.740,184.110 78.618,184.531 78.615 C 184.952 78.613,185.499 78.480,185.746 78.320 C 186.215 78.017,185.763 77.921,184.996 78.161 M178.545 80.048 C 176.763 80.650,172.825 82.290,173.593 82.111 C 173.923 82.034,174.934 81.690,175.840 81.346 C 176.745 81.002,177.690 80.710,177.940 80.698 C 178.544 80.668,180.924 79.560,180.345 79.578 C 180.098 79.586,179.287 79.797,178.545 80.048 M232.258 79.820 C 232.506 79.980,232.911 80.111,233.158 80.111 C 233.558 80.111,233.558 80.079,233.158 79.820 C 232.911 79.660,232.506 79.529,232.258 79.529 C 231.858 79.529,231.858 79.561,232.258 79.820 M233.908 80.420 C 234.010 80.585,234.324 80.720,234.606 80.720 C 234.887 80.720,235.858 81.002,236.763 81.346 C 237.669 81.690,238.680 82.050,239.010 82.147 C 239.340 82.244,240.015 82.548,240.510 82.822 C 241.684 83.474,243.177 83.852,242.918 83.433 C 242.812 83.261,242.535 83.121,242.302 83.121 C 242.069 83.121,241.165 82.796,240.294 82.400 C 238.865 81.750,234.284 80.120,233.884 80.120 C 233.796 80.120,233.806 80.255,233.908 80.420 M171.793 82.638 C 171.298 82.860,170.555 83.191,170.143 83.373 C 169.419 83.693,169.425 83.698,170.293 83.524 C 170.788 83.425,171.321 83.226,171.478 83.082 C 171.635 82.938,172.006 82.821,172.303 82.821 C 172.600 82.821,172.843 82.686,172.843 82.521 C 172.843 82.152,172.887 82.148,171.793 82.638 M167.892 84.338 C 167.112 84.707,166.902 84.906,167.292 84.907 C 167.622 84.907,168.230 84.644,168.642 84.321 C 169.559 83.604,169.436 83.607,167.892 84.338 M243.511 84.021 C 243.613 84.186,243.891 84.321,244.129 84.321 C 244.367 84.321,244.561 84.456,244.561 84.621 C 244.561 84.786,244.831 84.921,245.161 84.921 C 245.491 84.921,245.761 85.036,245.761 85.176 C 245.761 85.316,246.268 85.651,246.887 85.921 C 247.506 86.191,248.417 86.674,248.912 86.995 C 249.407 87.316,249.981 87.588,250.187 87.600 C 250.393 87.612,251.219 88.095,252.023 88.672 C 252.827 89.250,253.638 89.722,253.824 89.722 C 254.011 89.722,254.164 89.862,254.164 90.032 C 254.164 90.202,254.400 90.425,254.689 90.528 C 255.374 90.771,258.185 92.742,258.315 93.070 C 258.370 93.209,258.606 93.323,258.840 93.323 C 259.074 93.323,259.265 93.455,259.265 93.616 C 259.265 93.777,259.690 94.128,260.209 94.396 C 260.729 94.665,261.448 95.175,261.807 95.529 C 263.738 97.434,265.664 99.027,265.829 98.856 C 265.932 98.749,265.544 98.305,264.966 97.868 C 264.389 97.431,263.228 96.433,262.387 95.649 C 261.545 94.865,260.758 94.224,260.637 94.224 C 260.515 94.224,259.853 93.772,259.165 93.219 C 257.648 92.001,253.933 89.422,253.695 89.422 C 253.600 89.422,253.093 89.095,252.568 88.695 C 252.043 88.296,250.600 87.441,249.362 86.797 C 248.125 86.153,246.343 85.197,245.403 84.673 C 243.596 83.666,243.209 83.533,243.511 84.021 M242.761 85.371 C 243.173 85.607,243.646 85.800,243.811 85.800 C 243.976 85.800,243.773 85.607,243.361 85.371 C 242.948 85.135,242.476 84.942,242.311 84.942 C 242.146 84.942,242.348 85.135,242.761 85.371 M163.900 86.427 C 162.695 87.051,161.210 87.893,160.600 88.297 C 159.989 88.701,158.694 89.544,157.721 90.172 C 156.749 90.799,155.087 91.967,154.030 92.768 C 152.972 93.568,152.012 94.227,151.897 94.230 C 151.782 94.234,150.880 95.044,149.892 96.031 C 148.904 97.017,147.955 97.824,147.783 97.824 C 147.611 97.824,147.115 98.230,146.681 98.725 C 146.246 99.220,145.968 99.625,146.063 99.625 C 146.256 99.625,150.240 96.204,150.938 95.438 C 151.185 95.167,151.827 94.686,152.363 94.370 C 152.899 94.053,153.338 93.688,153.338 93.559 C 153.338 93.429,153.530 93.323,153.763 93.323 C 153.997 93.323,154.234 93.209,154.289 93.070 C 154.434 92.700,157.403 90.623,157.785 90.623 C 157.964 90.623,158.218 90.454,158.350 90.247 C 158.482 90.041,158.995 89.669,159.490 89.422 C 159.985 89.175,160.726 88.668,161.137 88.297 C 161.548 87.926,162.001 87.622,162.144 87.622 C 162.384 87.622,163.898 86.888,166.092 85.709 C 166.587 85.443,166.789 85.240,166.542 85.258 C 166.294 85.276,165.105 85.802,163.900 86.427 M247.794 87.923 C 249.068 88.700,249.485 88.699,248.312 87.922 C 247.817 87.594,247.277 87.325,247.112 87.325 C 246.947 87.324,247.254 87.594,247.794 87.923 M265.416 100.525 C 266.229 101.350,266.962 102.026,267.044 102.026 C 267.127 102.026,266.529 101.350,265.716 100.525 C 264.904 99.700,264.171 99.025,264.089 99.025 C 264.006 99.025,264.604 99.700,265.416 100.525 M266.167 99.150 C 266.167 99.466,267.070 100.321,267.233 100.159 C 267.309 100.083,267.100 99.776,266.769 99.477 C 266.437 99.177,266.167 99.030,266.167 99.150 M144.319 101.075 C 142.458 102.994,142.317 103.435,144.111 101.724 C 145.060 100.819,145.836 100.044,145.836 100.002 C 145.836 99.707,145.229 100.136,144.319 101.075 M268.117 101.316 C 268.612 101.741,269.251 102.378,269.536 102.732 C 269.821 103.086,270.057 103.222,270.061 103.035 C 270.069 102.613,267.949 100.522,267.526 100.535 C 267.356 100.540,267.622 100.892,268.117 101.316 M145.677 101.736 C 145.138 102.332,145.142 102.363,145.844 103.011 L 146.564 103.676 146.004 103.001 C 145.463 102.349,145.462 102.305,145.986 101.725 C 146.285 101.395,146.462 101.125,146.380 101.125 C 146.297 101.125,145.981 101.400,145.677 101.736 M269.917 105.026 C 270.730 105.851,271.463 106.527,271.545 106.527 C 271.628 106.527,271.030 105.851,270.218 105.026 C 269.405 104.201,268.672 103.526,268.590 103.526 C 268.507 103.526,269.105 104.201,269.917 105.026 M270.968 103.929 C 270.968 104.038,271.238 104.396,271.568 104.726 C 271.898 105.056,272.168 105.212,272.168 105.073 C 272.168 104.933,271.898 104.575,271.568 104.276 C 271.238 103.977,270.968 103.821,270.968 103.929 M139.835 105.552 C 139.835 105.731,139.160 106.617,138.335 107.520 C 137.509 108.423,136.834 109.278,136.833 109.419 C 136.832 109.561,136.359 110.191,135.783 110.819 C 135.206 111.447,134.734 112.089,134.734 112.245 C 134.734 112.401,134.628 112.528,134.498 112.528 C 134.369 112.528,134.021 112.967,133.725 113.503 L 133.187 114.479 133.974 113.578 C 135.553 111.773,135.934 111.271,135.934 111.002 C 135.934 110.851,136.048 110.728,136.187 110.728 C 136.326 110.728,136.694 110.255,137.005 109.677 C 137.316 109.100,137.664 108.627,137.777 108.627 C 138.118 108.627,140.222 105.613,140.021 105.412 C 139.919 105.310,139.835 105.373,139.835 105.552 M272.468 105.527 C 272.468 105.687,272.974 106.417,273.592 107.148 C 275.404 109.291,275.769 109.658,275.769 109.336 C 275.769 109.169,275.413 108.704,274.978 108.304 C 274.543 107.904,273.800 107.050,273.328 106.407 C 272.855 105.763,272.468 105.367,272.468 105.527 M276.173 110.376 C 276.446 110.678,276.669 111.083,276.669 111.276 C 276.669 111.470,276.802 111.628,276.965 111.628 C 277.128 111.628,277.633 112.202,278.087 112.903 C 278.542 113.605,278.993 114.246,279.089 114.329 C 279.185 114.411,279.355 114.681,279.466 114.929 C 279.577 115.176,280.206 116.189,280.864 117.179 C 281.522 118.170,282.335 119.520,282.670 120.180 C 283.005 120.840,283.606 121.920,284.005 122.581 C 284.973 124.185,286.404 127.118,286.895 128.507 C 287.113 129.126,287.400 129.632,287.532 129.632 C 287.664 129.632,287.772 129.895,287.772 130.215 C 287.772 130.535,287.907 130.881,288.072 130.983 C 288.535 131.269,288.438 130.883,287.586 129.062 C 285.007 123.545,283.447 120.633,281.299 117.325 C 280.496 116.090,279.668 114.762,279.458 114.375 C 278.969 113.475,276.073 109.827,275.847 109.827 C 275.753 109.827,275.899 110.074,276.173 110.376 M131.263 117.361 C 130.305 118.879,129.298 120.539,129.025 121.051 C 128.753 121.562,128.022 122.926,127.402 124.081 C 126.782 125.236,126.411 126.047,126.578 125.881 C 126.745 125.716,127.317 124.771,127.849 123.781 C 128.381 122.791,128.972 121.778,129.162 121.530 C 129.353 121.283,129.702 120.675,129.939 120.180 C 130.176 119.685,130.677 118.862,131.052 118.351 C 131.426 117.841,131.733 117.313,131.733 117.179 C 131.733 117.045,132.084 116.475,132.513 115.913 C 132.943 115.350,133.229 114.824,133.149 114.745 C 133.070 114.665,132.221 115.842,131.263 117.361 M279.235 116.802 C 279.664 117.507,280.270 117.689,280.270 117.112 C 280.270 117.011,280.186 117.014,280.083 117.117 C 279.980 117.220,279.634 117.006,279.315 116.641 L 278.734 115.979 279.235 116.802 M125.845 127.157 C 125.736 127.611,125.460 128.353,125.232 128.807 C 125.003 129.261,124.938 129.632,125.087 129.632 C 125.378 129.632,125.890 128.497,126.204 127.157 C 126.310 126.703,126.317 126.332,126.220 126.332 C 126.123 126.332,125.954 126.703,125.845 127.157 M123.545 132.709 C 122.375 135.696,121.841 137.623,122.402 136.834 C 122.578 136.587,122.724 136.146,122.726 135.855 C 122.729 135.564,122.854 135.091,123.006 134.805 C 123.282 134.281,123.812 133.024,124.527 131.198 C 124.739 130.657,124.849 130.150,124.772 130.073 C 124.695 129.996,124.143 131.182,123.545 132.709 M288.372 131.658 C 288.373 132.019,289.424 134.685,289.659 134.920 C 289.776 135.038,289.872 135.441,289.872 135.816 C 289.872 136.192,290.022 136.591,290.205 136.704 C 290.607 136.953,290.432 136.290,289.351 133.458 C 288.633 131.579,288.372 131.098,288.372 131.658 M290.649 138.335 C 290.734 139.077,290.932 139.813,291.088 139.970 C 291.245 140.127,291.373 140.522,291.373 140.849 C 291.373 141.489,291.883 143.261,292.310 144.107 C 292.455 144.394,292.587 145.069,292.603 145.607 C 292.620 146.146,292.752 146.924,292.898 147.337 C 293.442 148.880,292.832 144.775,292.254 143.011 C 291.934 142.035,291.673 141.011,291.673 140.736 C 291.673 140.460,291.572 140.135,291.448 140.012 C 291.324 139.889,291.059 139.158,290.858 138.387 L 290.494 136.984 290.649 138.335 M121.661 138.560 C 121.562 139.014,121.402 139.587,121.306 139.835 C 120.959 140.735,120.069 144.175,120.160 144.266 C 120.307 144.413,121.230 141.436,121.230 140.814 C 121.230 140.507,121.351 140.127,121.499 139.970 C 121.818 139.631,122.252 137.734,122.010 137.734 C 121.918 137.734,121.761 138.106,121.661 138.560 M119.617 146.181 C 119.534 146.734,119.315 148.267,119.131 149.587 C 118.947 150.908,118.739 152.366,118.668 152.828 C 118.597 153.290,118.655 153.596,118.798 153.508 C 118.940 153.420,119.131 152.569,119.222 151.618 C 119.313 150.666,119.531 148.885,119.707 147.660 C 119.883 146.435,119.969 145.375,119.898 145.304 C 119.827 145.233,119.701 145.628,119.617 146.181 M293.387 151.088 C 293.479 152.243,293.671 153.416,293.814 153.694 C 293.957 153.972,294.085 155.322,294.100 156.694 C 294.114 158.067,294.241 159.865,294.383 160.690 C 294.566 161.762,294.600 161.162,294.502 158.590 C 294.373 155.207,294.042 152.473,293.467 150.038 C 293.299 149.327,293.273 149.666,293.387 151.088 M118.126 157.164 C 117.896 160.646,117.933 168.784,118.194 171.943 C 118.296 173.181,118.381 169.704,118.382 164.216 C 118.383 158.728,118.370 154.239,118.352 154.239 C 118.335 154.239,118.233 155.555,118.126 157.164 M292.943 157.239 C 292.943 157.817,293.005 158.053,293.080 157.764 C 293.156 157.476,293.156 157.003,293.080 156.714 C 293.005 156.425,292.943 156.662,292.943 157.239 M119.512 157.839 C 119.512 158.582,119.570 158.886,119.642 158.515 C 119.713 158.143,119.713 157.536,119.642 157.164 C 119.570 156.793,119.512 157.097,119.512 157.839 M294.294 167.559 C 294.173 168.366,294.074 170.164,294.074 171.554 C 294.074 172.945,293.957 174.310,293.814 174.588 C 293.518 175.165,293.053 179.365,293.315 179.103 C 293.560 178.858,294.036 175.372,294.393 171.202 C 294.728 167.298,294.667 165.080,294.294 167.559 M119.499 170.443 C 119.499 171.020,119.561 171.257,119.637 170.968 C 119.712 170.679,119.712 170.206,119.637 169.917 C 119.561 169.629,119.499 169.865,119.499 170.443 M292.943 171.343 C 292.943 171.920,293.005 172.157,293.080 171.868 C 293.156 171.579,293.156 171.107,293.080 170.818 C 293.005 170.529,292.943 170.765,292.943 171.343 M118.658 175.394 C 118.730 175.889,118.950 177.442,119.148 178.845 C 119.582 181.922,120.107 184.010,119.864 181.695 C 119.555 178.744,119.060 175.684,118.796 175.094 C 118.583 174.616,118.555 174.677,118.658 175.394 M292.790 180.945 C 292.675 181.358,292.594 182.168,292.610 182.746 C 292.638 183.756,292.649 183.744,292.908 182.446 C 293.211 180.928,293.119 179.762,292.790 180.945 M292.172 184.278 C 292.109 184.508,291.904 185.178,291.715 185.768 C 291.527 186.357,291.373 187.051,291.373 187.309 C 291.373 187.567,291.171 188.165,290.925 188.638 C 290.678 189.111,290.475 189.928,290.474 190.455 C 290.473 190.982,290.338 191.496,290.173 191.598 C 290.008 191.700,289.872 192.090,289.872 192.466 C 289.872 192.841,289.776 193.245,289.659 193.362 C 289.343 193.677,288.366 196.343,288.512 196.489 C 288.663 196.640,289.572 194.523,289.572 194.022 C 289.572 193.827,289.684 193.540,289.820 193.383 C 289.957 193.227,290.235 192.491,290.439 191.748 C 290.642 191.005,291.001 189.722,291.235 188.897 C 292.390 184.831,292.561 184.133,292.429 184.002 C 292.351 183.924,292.236 184.048,292.172 184.278 M120.792 186.647 C 121.049 188.011,121.860 190.548,122.039 190.548 C 122.260 190.548,121.796 188.628,121.499 188.312 C 121.351 188.155,121.228 187.683,121.226 187.262 C 121.223 186.841,121.080 186.294,120.907 186.047 C 120.676 185.715,120.646 185.872,120.792 186.647 M122.156 191.448 C 122.147 191.860,122.271 192.401,122.431 192.648 C 122.812 193.239,122.812 192.186,122.431 191.298 C 122.194 190.748,122.171 190.761,122.156 191.448 M123.020 194.112 C 123.156 194.587,123.474 195.431,123.727 195.987 C 123.979 196.544,124.617 198.012,125.145 199.250 C 125.673 200.488,126.167 201.568,126.243 201.650 C 126.567 202.001,125.885 199.914,125.382 199.016 C 125.079 198.474,124.831 197.900,124.831 197.739 C 124.831 197.578,124.494 196.747,124.081 195.891 C 123.668 195.036,123.331 194.091,123.331 193.792 C 123.331 193.493,123.205 193.248,123.052 193.248 C 122.887 193.248,122.874 193.602,123.020 194.112 M287.897 197.331 C 287.792 197.644,287.452 198.472,287.139 199.172 C 286.827 199.871,286.572 200.551,286.572 200.683 C 286.572 201.019,284.212 205.534,283.532 206.498 C 283.223 206.936,282.971 207.398,282.971 207.525 C 282.971 207.978,277.752 215.923,276.770 216.967 C 276.219 217.551,275.769 218.138,275.769 218.270 C 275.769 219.281,263.392 231.958,262.404 231.958 C 262.318 231.958,261.832 232.431,261.325 233.008 C 260.818 233.586,260.234 234.059,260.028 234.059 C 259.821 234.059,259.288 234.396,258.843 234.809 C 258.398 235.221,257.967 235.559,257.886 235.559 C 257.806 235.559,257.449 235.829,257.095 236.159 C 256.741 236.489,256.274 236.759,256.057 236.759 C 255.841 236.759,255.664 236.905,255.664 237.084 C 255.664 237.495,257.625 236.335,258.829 235.212 C 259.332 234.742,259.878 234.359,260.041 234.359 C 260.205 234.359,260.920 233.833,261.631 233.190 C 262.341 232.547,263.349 231.681,263.869 231.265 C 266.889 228.857,274.462 220.903,275.958 218.569 C 276.262 218.093,276.884 217.299,277.339 216.804 C 277.794 216.309,278.167 215.812,278.168 215.700 C 278.169 215.588,278.341 215.318,278.550 215.100 C 279.093 214.535,282.759 208.713,283.807 206.752 C 284.292 205.844,285.180 204.188,285.780 203.071 C 286.381 201.955,286.872 200.913,286.872 200.755 C 286.872 200.597,287.219 199.708,287.644 198.780 C 288.068 197.852,288.341 197.019,288.251 196.928 C 288.160 196.837,288.001 197.019,287.897 197.331 M127.149 203.676 C 127.258 203.965,127.793 204.966,128.340 205.902 C 128.886 206.837,129.332 207.682,129.332 207.779 C 129.332 208.112,134.532 215.903,135.683 217.296 C 136.316 218.062,136.834 218.776,136.834 218.883 C 136.834 218.990,137.374 219.640,138.035 220.327 C 138.695 221.014,139.235 221.668,139.235 221.781 C 139.235 222.112,148.247 231.148,148.412 230.982 C 148.495 230.900,147.654 229.971,146.543 228.919 C 142.239 224.843,139.580 221.924,137.191 218.654 C 136.809 218.132,136.180 217.367,135.792 216.954 C 135.107 216.226,132.333 212.206,132.333 211.942 C 132.333 211.870,131.904 211.188,131.380 210.426 C 130.342 208.917,128.727 206.056,127.908 204.276 C 127.395 203.161,126.767 202.665,127.149 203.676 M139.146 219.796 C 139.442 220.203,139.810 220.541,139.962 220.546 C 140.115 220.551,139.923 220.218,139.535 219.805 C 138.635 218.847,138.452 218.843,139.146 219.796 M268.561 224.981 L 266.017 227.607 268.642 225.063 C 271.081 222.700,271.405 222.356,271.186 222.356 C 271.141 222.356,269.960 223.537,268.561 224.981 M144.636 225.806 C 145.196 226.384,145.722 226.857,145.804 226.857 C 145.887 226.857,145.496 226.384,144.936 225.806 C 144.376 225.229,143.851 224.756,143.768 224.756 C 143.686 224.756,144.076 225.229,144.636 225.806 M148.851 231.283 C 148.866 231.518,151.836 233.971,152.750 234.502 C 153.040 234.671,153.730 235.162,154.283 235.594 C 155.953 236.898,156.939 237.455,156.939 237.094 C 156.939 236.910,156.797 236.759,156.622 236.759 C 156.200 236.759,152.773 234.264,150.750 232.483 C 149.128 231.055,148.825 230.864,148.851 231.283 M153.638 233.547 C 153.638 233.607,154.280 234.095,155.064 234.632 C 156.143 235.370,156.270 235.415,155.589 234.818 C 154.683 234.024,153.638 233.343,153.638 233.547 M255.814 235.746 C 255.274 236.206,255.164 236.388,255.539 236.202 C 256.089 235.929,257.120 234.941,256.826 234.970 C 256.764 234.975,256.309 235.325,255.814 235.746 M156.639 235.668 C 156.639 235.751,157.044 236.107,157.539 236.459 C 158.035 236.812,158.440 237.033,158.440 236.950 C 158.440 236.868,158.035 236.512,157.539 236.159 C 157.044 235.806,156.639 235.586,156.639 235.668 M157.405 237.684 C 157.665 238.105,160.191 239.718,162.652 241.034 C 163.719 241.605,165.233 242.433,166.017 242.876 C 166.800 243.318,167.442 243.573,167.442 243.441 C 167.442 243.310,166.935 242.965,166.317 242.676 C 165.698 242.386,164.719 241.862,164.141 241.512 C 163.078 240.868,161.036 239.723,159.613 238.973 C 159.186 238.748,158.591 238.293,158.292 237.962 C 157.721 237.331,157.058 237.124,157.405 237.684 M254.304 237.970 C 253.732 238.603,253.446 238.784,250.982 240.086 C 250.174 240.513,248.770 241.289,247.862 241.810 C 246.954 242.330,245.639 243.051,244.938 243.411 C 244.238 243.771,243.725 244.125,243.798 244.198 C 243.870 244.270,244.983 243.756,246.271 243.053 C 247.559 242.351,249.294 241.412,250.128 240.966 C 252.222 239.845,254.957 238.076,255.198 237.684 C 255.547 237.120,254.881 237.333,254.304 237.970 M241.260 243.811 C 240.848 244.047,240.645 244.240,240.810 244.240 C 240.975 244.240,241.448 244.047,241.860 243.811 C 242.273 243.575,242.476 243.382,242.311 243.382 C 242.146 243.382,241.673 243.575,241.260 243.811 M168.342 244.039 C 168.755 244.224,170.090 244.827,171.309 245.378 C 172.528 245.929,173.571 246.334,173.626 246.279 C 173.778 246.127,170.763 244.624,169.280 244.113 C 167.758 243.589,167.253 243.549,168.342 244.039 M241.993 244.702 C 241.672 244.944,241.174 245.146,240.885 245.152 C 240.596 245.157,240.360 245.292,240.360 245.452 C 240.360 245.770,240.823 245.629,242.444 244.818 C 243.031 244.525,243.300 244.280,243.043 244.273 C 242.786 244.266,242.313 244.459,241.993 244.702 M175.094 246.942 C 176.715 247.685,179.739 248.568,179.947 248.360 C 180.040 248.267,179.729 248.109,179.255 248.008 C 178.782 247.908,178.160 247.699,177.874 247.544 C 177.587 247.389,177.164 247.262,176.933 247.262 C 176.702 247.262,176.126 247.060,175.653 246.814 C 175.180 246.567,174.591 246.371,174.344 246.378 C 174.096 246.386,174.434 246.639,175.094 246.942 M236.950 246.814 C 236.477 247.060,235.844 247.262,235.542 247.262 C 235.241 247.262,234.911 247.397,234.809 247.562 C 234.707 247.727,234.234 247.862,233.758 247.862 C 233.283 247.862,232.810 247.997,232.708 248.162 C 232.382 248.690,236.824 247.473,238.260 246.641 C 239.089 246.160,237.903 246.316,236.950 246.814 M180.345 248.584 C 180.345 248.651,181.122 248.935,182.071 249.215 C 183.020 249.495,184.134 249.840,184.546 249.981 C 185.867 250.434,187.756 250.650,187.247 250.290 C 186.999 250.115,186.424 249.970,185.967 249.967 C 185.511 249.965,184.904 249.840,184.617 249.690 C 183.508 249.110,180.345 248.292,180.345 248.584 M230.008 248.957 C 229.182 249.209,228.273 249.539,227.986 249.689 C 227.699 249.839,227.092 249.965,226.636 249.967 C 226.180 249.970,225.604 250.115,225.356 250.290 C 224.464 250.920,229.666 249.689,231.808 248.762 C 232.805 248.331,231.647 248.457,230.008 248.957 M188.597 250.863 C 188.927 251.005,189.602 251.114,190.098 251.106 L 190.998 251.092 190.098 250.863 C 189.602 250.737,188.927 250.627,188.597 250.619 L 187.997 250.605 188.597 250.863 M222.656 250.863 L 221.605 251.084 222.656 251.119 C 223.233 251.138,223.908 251.023,224.156 250.863 C 224.702 250.510,224.331 250.510,222.656 250.863 M212.082 251.075 C 212.455 251.147,212.995 251.144,213.282 251.069 C 213.569 250.994,213.263 250.935,212.603 250.938 C 211.943 250.942,211.708 251.003,212.082 251.075 M191.598 251.455 C 192.427 251.758,198.043 252.085,197.299 251.787 C 196.969 251.655,195.416 251.477,193.848 251.392 C 192.281 251.306,191.268 251.335,191.598 251.455 M217.798 251.442 C 216.364 251.543,215.092 251.724,214.972 251.845 C 214.692 252.125,220.207 251.753,221.005 251.438 L 221.605 251.201 221.005 251.229 C 220.675 251.245,219.232 251.341,217.798 251.442 M202.203 252.466 C 204.746 252.625,208.182 252.624,210.605 252.464 C 214.415 252.213,214.111 252.194,206.302 252.196 C 198.342 252.197,198.126 252.211,202.203 252.466 " stroke="none" fill="#d67c7c" fill-rule="evenodd"></path></g></svg>